<svg width="150" height="48" viewBox="0 0 150 48" fill="none" xmlns="http://www.w3.org/2000/svg">
<g clip-path="url(#clip0_37_45)">
<path d="M23.2596 43.7414C23.2596 43.6224 23.2528 23.0283 23.2528 23.0283C23.2528 23.0283 35.3701 11.3692 35.467 11.2891C35.6043 11.4539 37.7684 14.6703 38.4439 16.3002C39.1578 18.024 39.6262 19.8188 39.8581 21.6731C40.0157 22.9345 40.0338 24.2004 39.9504 25.4709C39.8086 27.6549 39.3042 29.7473 38.4665 31.7572C37.7008 33.5955 36.6605 35.2598 35.3814 36.7775C34.6203 37.6795 33.8006 38.5219 32.8998 39.2751C31.5802 40.3785 30.157 41.3217 28.6078 42.068C27.0044 42.8395 23.4262 43.7483 23.3451 43.7574C23.3339 43.762 23.3159 43.7529 23.2596 43.7414Z" fill="#EC2526"/>
<path d="M32.809 8.58872C31.4353 9.88443 30.0955 11.1504 28.7669 12.4026C28.3886 12.1645 28.0373 11.9356 27.6792 11.7204C26.1772 10.8139 24.5649 10.2049 22.8399 9.91419C21.3019 9.65321 19.7594 9.64864 18.2146 9.87985C16.2825 10.1683 14.472 10.8047 12.7943 11.8211C10.8735 12.9841 9.2724 14.4995 8.02036 16.3882C7.02278 17.8922 6.3247 19.5313 5.91036 21.294C5.56807 22.7454 5.47349 24.2174 5.58384 25.7054C5.74597 27.8687 6.34047 29.8993 7.37858 31.7948C7.38759 31.8108 4.84297 34.3176 3.52562 35.5652C3.3207 35.2653 3.1293 34.9997 2.95365 34.725C1.74439 32.8364 0.913453 30.7875 0.442811 28.5876C0.120793 27.0858 -0.0120671 25.5703 -0.000807776 24.0365C0.0149553 21.9144 0.384262 19.8587 1.05082 17.8533C1.91328 15.2619 3.24864 12.9429 5.03438 10.894C6.97775 8.66197 9.30843 6.96793 11.9837 5.75692C13.4023 5.11593 14.8796 4.65579 16.4041 4.36048C17.0098 4.24373 19.7864 3.98046 20.561 4.00336C21.5091 4.02854 22.4504 4.11324 23.3871 4.25975C25.1706 4.53904 26.873 5.0793 28.5102 5.84162C29.8815 6.48032 31.1471 7.29758 32.3473 8.22473C32.4892 8.33461 32.6311 8.44907 32.809 8.58872Z" fill="#EC2526"/>
<path d="M20.5663 44.0002L17.3844 43.9384L17.3799 28.3807C17.3799 28.3807 20.5573 25.3245 20.5663 25.3291C20.5731 25.3337 20.5663 44.0002 20.5663 44.0002Z" fill="#EC2526"/>
<path d="M14.6169 30.9033V43.3728L11.4125 42.1618L11.453 33.9366L14.6169 30.9033Z" fill="#EC2526"/>
<path d="M8.48953 40.5204L6.21063 38.7119L8.55258 36.4937L8.48953 40.5204Z" fill="#EC2526"/>
</g>
<path d="M66.84 11.56C67.96 11.56 69.16 11.6533 70.44 11.84C71.7467 12.0267 72.7733 12.2933 73.52 12.64C73.76 12.72 73.92 12.8267 74 12.96C74.08 13.0667 74.1333 13.2667 74.16 13.56L74.64 19.12C74.64 19.2 74.5733 19.2533 74.44 19.28C74.3333 19.3067 74.2533 19.2667 74.2 19.16C73.32 17.1067 72.12 15.4933 70.6 14.32C69.1067 13.1467 67.3333 12.56 65.28 12.56C63.4933 12.56 61.9733 13.0133 60.72 13.92C59.4933 14.8267 58.56 16.0933 57.92 17.72C57.3067 19.32 57 21.1867 57 23.32C57 25.16 57.2267 26.8933 57.68 28.52C58.1333 30.12 58.7733 31.5333 59.6 32.76C60.4267 33.96 61.4133 34.9067 62.56 35.6C63.7067 36.2933 64.9733 36.64 66.36 36.64C68.0667 36.64 69.5867 36.08 70.92 34.96C72.28 33.84 73.4933 32.1067 74.56 29.76C74.6133 29.6533 74.7067 29.6133 74.84 29.64C74.9733 29.6667 75.04 29.72 75.04 29.8L74.44 35.24C74.3867 35.56 74.32 35.7733 74.24 35.88C74.1867 35.96 74.04 36.0533 73.8 36.16C72.5733 36.6133 71.3333 36.9467 70.08 37.16C68.8533 37.3733 67.6533 37.48 66.48 37.48C63.8933 37.48 61.68 37.0933 59.84 36.32C58 35.52 56.4933 34.48 55.32 33.2C54.1733 31.8933 53.32 30.48 52.76 28.96C52.2267 27.4133 51.96 25.8933 51.96 24.4C51.96 22.4267 52.36 20.6533 53.16 19.08C53.9867 17.5067 55.0933 16.16 56.48 15.04C57.8933 13.92 59.48 13.0667 61.24 12.48C63.0267 11.8667 64.8933 11.56 66.84 11.56ZM86.2378 37.52C84.5578 37.52 83.1045 37.1333 81.8778 36.36C80.6511 35.5867 79.7045 34.56 79.0378 33.28C78.3711 31.9733 78.0378 30.5733 78.0378 29.08C78.0378 27.6933 78.3045 26.4933 78.8378 25.48C79.3711 24.4667 80.0778 23.64 80.9578 23C81.8378 22.3333 82.7978 21.84 83.8378 21.52C84.8778 21.2 85.9045 21.04 86.9178 21.04C88.6245 21.04 90.0778 21.44 91.2778 22.24C92.5045 23.04 93.4378 24.0667 94.0778 25.32C94.7178 26.5733 95.0378 27.9067 95.0378 29.32C95.0378 30.9467 94.6245 32.3867 93.7978 33.64C92.9978 34.8667 91.9311 35.8267 90.5978 36.52C89.2645 37.1867 87.8111 37.52 86.2378 37.52ZM87.4378 36.68C88.5045 36.68 89.3045 36.16 89.8378 35.12C90.3711 34.08 90.6378 32.6133 90.6378 30.72C90.6378 28.7733 90.3845 27.1467 89.8778 25.84C89.3978 24.5333 88.7711 23.5467 87.9978 22.88C87.2245 22.2133 86.4111 21.88 85.5578 21.88C84.5178 21.88 83.7178 22.3467 83.1578 23.28C82.6245 24.2133 82.3578 25.6533 82.3578 27.6C82.3578 29.4133 82.5845 31.0133 83.0378 32.4C83.4911 33.76 84.1045 34.8133 84.8778 35.56C85.6511 36.3067 86.5045 36.68 87.4378 36.68ZM108.648 37C108.568 37 108.528 36.92 108.528 36.76C108.528 36.6 108.568 36.52 108.648 36.52C109.475 36.52 110.035 36.3333 110.328 35.96C110.621 35.56 110.768 34.8267 110.768 33.76V28C110.768 26.56 110.501 25.4933 109.968 24.8C109.461 24.1067 108.648 23.76 107.528 23.76C106.728 23.76 105.901 23.96 105.048 24.36C104.221 24.76 103.555 25.3067 103.048 26L102.848 25.52C103.781 24.1867 104.835 23.12 106.008 22.32C107.181 21.4933 108.461 21.08 109.848 21.08C111.341 21.08 112.488 21.5467 113.288 22.48C114.115 23.4133 114.528 24.6133 114.528 26.08V33.76C114.528 34.8267 114.675 35.56 114.968 35.96C115.288 36.3333 115.861 36.52 116.688 36.52C116.768 36.52 116.808 36.6 116.808 36.76C116.808 36.92 116.768 37 116.688 37C116.155 37 115.541 36.9867 114.848 36.96C114.155 36.9333 113.421 36.92 112.648 36.92C111.901 36.92 111.181 36.9333 110.488 36.96C109.795 36.9867 109.181 37 108.648 37ZM97.8881 37C97.8081 37 97.7681 36.92 97.7681 36.76C97.7681 36.6 97.8081 36.52 97.8881 36.52C98.7148 36.52 99.2748 36.3333 99.5681 35.96C99.8615 35.56 100.008 34.8267 100.008 33.76V26.24C100.008 25.4133 99.9148 24.8133 99.7281 24.44C99.5415 24.04 99.2215 23.84 98.7681 23.84C98.5281 23.84 98.2481 23.8933 97.9281 24C97.6081 24.08 97.2481 24.2133 96.8481 24.4C96.7415 24.4533 96.6615 24.4 96.6081 24.24C96.5548 24.08 96.5548 23.9867 96.6081 23.96L102.168 21.24C102.328 21.1867 102.421 21.16 102.448 21.16C102.741 21.16 103.035 21.48 103.328 22.12C103.621 22.76 103.768 23.68 103.768 24.88V33.76C103.768 34.8267 103.915 35.56 104.208 35.96C104.528 36.3333 105.101 36.52 105.928 36.52C106.008 36.52 106.048 36.6 106.048 36.76C106.048 36.92 106.008 37 105.928 37C105.395 37 104.781 36.9867 104.088 36.96C103.395 36.9333 102.661 36.92 101.888 36.92C101.141 36.92 100.421 36.9333 99.7281 36.96C99.0348 36.9867 98.4215 37 97.8881 37ZM122.103 23.48C122.103 24.04 122.249 24.5467 122.543 25C122.863 25.4267 123.263 25.8267 123.743 26.2C124.223 26.5467 124.743 26.8933 125.303 27.24C125.969 27.6133 126.623 28.0133 127.263 28.44C127.903 28.84 128.436 29.3333 128.863 29.92C129.289 30.5067 129.503 31.2667 129.503 32.2C129.503 33.0533 129.276 33.8933 128.823 34.72C128.396 35.52 127.743 36.1733 126.863 36.68C125.983 37.1867 124.876 37.44 123.543 37.44C122.876 37.44 122.209 37.36 121.543 37.2C120.876 37.0667 120.156 36.7867 119.383 36.36C119.329 36.3067 119.276 36.24 119.223 36.16C119.169 36.08 119.143 35.9867 119.143 35.88L119.063 31.92C119.063 31.84 119.129 31.8 119.263 31.8C119.423 31.7733 119.516 31.7867 119.543 31.84C119.836 32.6933 120.249 33.4933 120.783 34.24C121.316 34.96 121.916 35.5467 122.583 36C123.276 36.4267 123.969 36.64 124.663 36.64C125.196 36.64 125.636 36.48 125.983 36.16C126.329 35.8133 126.503 35.2933 126.503 34.6C126.503 33.8533 126.329 33.24 125.983 32.76C125.663 32.2533 125.249 31.8267 124.743 31.48C124.236 31.1067 123.716 30.7733 123.183 30.48C122.569 30.1333 121.956 29.7733 121.343 29.4C120.729 29.0267 120.223 28.56 119.823 28C119.423 27.4133 119.223 26.6533 119.223 25.72C119.223 24.6 119.503 23.7067 120.063 23.04C120.623 22.3733 121.343 21.8933 122.223 21.6C123.129 21.3067 124.063 21.16 125.023 21.16C125.609 21.16 126.143 21.2 126.623 21.28C127.129 21.36 127.703 21.52 128.343 21.76C128.583 21.84 128.703 21.9867 128.703 22.2C128.703 22.7333 128.689 23.2933 128.663 23.88C128.636 24.44 128.623 25.0667 128.623 25.76C128.623 25.84 128.543 25.88 128.383 25.88C128.223 25.88 128.143 25.84 128.143 25.76C128.143 25.2533 127.929 24.7067 127.503 24.12C127.103 23.5333 126.569 23.0267 125.903 22.6C125.236 22.1467 124.516 21.92 123.743 21.92C123.369 21.92 122.996 22.0133 122.623 22.2C122.276 22.3867 122.103 22.8133 122.103 23.48ZM132.259 37C132.206 37 132.179 36.92 132.179 36.76C132.179 36.6 132.206 36.52 132.259 36.52C133.086 36.52 133.646 36.3333 133.939 35.96C134.259 35.56 134.419 34.8267 134.419 33.76L134.459 13.44C134.459 12.5333 134.379 11.88 134.219 11.48C134.059 11.0533 133.753 10.84 133.299 10.84C132.953 10.84 132.446 10.9867 131.779 11.28C131.699 11.3067 131.619 11.24 131.539 11.08C131.459 10.92 131.446 10.8267 131.499 10.8L137.379 8.04C137.433 8.01333 137.486 8 137.539 8C137.673 8 137.819 8.06667 137.979 8.2C138.139 8.30667 138.219 8.41333 138.219 8.52V33.76C138.219 34.8267 138.366 35.56 138.659 35.96C138.953 36.3333 139.513 36.52 140.339 36.52C140.446 36.52 140.499 36.6 140.499 36.76C140.499 36.92 140.446 37 140.339 37C139.833 37 139.219 36.9867 138.499 36.96C137.806 36.9333 137.073 36.92 136.299 36.92C135.526 36.92 134.793 36.9333 134.099 36.96C133.406 36.9867 132.793 37 132.259 37ZM145.763 37.44C145.016 37.44 144.416 37.2267 143.963 36.8C143.536 36.3467 143.323 35.7467 143.323 35C143.323 34.3067 143.536 33.7467 143.963 33.32C144.416 32.8933 145.016 32.68 145.763 32.68C146.536 32.68 147.123 32.8933 147.523 33.32C147.923 33.7467 148.123 34.3067 148.123 35C148.123 35.7467 147.923 36.3467 147.523 36.8C147.123 37.2267 146.536 37.44 145.763 37.44Z" fill="white"/>
<defs>
<clipPath id="clip0_37_45">
<rect width="40" height="40" fill="white" transform="translate(0 4)"/>
</clipPath>
</defs>
</svg>
