<?xml version="1.0" standalone="no"?>
<!DOCTYPE svg PUBLIC "-//W3C//DTD SVG 1.1//EN" "http://www.w3.org/Graphics/SVG/1.1/DTD/svg11.dtd" >
<svg xmlns="http://www.w3.org/2000/svg">
<metadata>Generated by IcoMoon</metadata>
<defs>
<font id="icomoon" horiz-adv-x="1024">
<font-face units-per-em="1024" ascent="960" descent="-64" />
<missing-glyph horiz-adv-x="1024" />
<glyph unicode="&#x20;" horiz-adv-x="512" d="" />
<glyph unicode="&#xe900;" glyph-name="01" d="M130.419 345.258c5.44-5.628 13.819-7.352 20.984-4.282l313.628 132.446-236.78-147.534c-5.556-3.467-8.929-9.535-8.929-16.095v-133.755c0-26.462 3.734-49.078 10.805-65.378 12.149-28.035 31.107-32.207 41.322-32.207 12.36 0 24.568 5.761 36.264 17.138l45.060 43.825 66.193-45.816c16.531-11.448 36.452-17.478 57.608-17.478 43.676 0 88.865 25.514 117.983 66.574l406.571 573.703c28.017 39.543 25.229 64.584 17.969 78.612-4.794 9.288-17.648 24.87-49.723 24.87-10.654 0-22.727-1.725-35.938-5.099l-858.639-219.417c-38.309-9.783-63.901-31.126-72.108-60.070-8.19-28.967 2.426-60.545 29.913-88.943l97.815-101.095zM39.18 524.962c4.36 15.411 20.34 27.372 45.001 33.667l858.657 219.437c23.089 5.876 40.622 3.412 42.613-0.474 1.839-3.544 1.024-16.321-15.241-39.278l-406.551-573.706c-22.12-31.203-55.484-50.573-87.067-50.573-13.609 0-25.725 3.598-36.016 10.729l-79.026 54.708c-3.279 2.255-7.033 3.373-10.787 3.373-4.796 0-9.574-1.819-13.212-5.364l-56.244-54.706c-6.521-6.334-9.818-6.406-9.839-6.427-3.639 1.135-14.217 18.006-14.217 59.693v123.232l431.596 268.931c8.378 5.214 11.354 16.036 6.785 24.816-4.547 8.835-15.202 12.567-24.187 8.737l-522.809-220.803-88.792 91.767c-17.687 18.27-25.041 36.829-20.664 52.24z" />
<glyph unicode="&#xe901;" glyph-name="02" d="M874.035 810.039c-199.635 199.636-524.44 199.636-724.076 0s-199.636-524.441 0-724.078c199.637-199.635 524.441-199.635 724.076 0 199.637 199.637 199.637 524.442 0 724.078zM640.221 259.441l-128.223 128.223-128.225-128.223c-16.654-16.656-43.68-16.656-60.336 0-16.654 16.654-16.654 43.68 0 60.336l128.225 128.223-128.225 128.223c-16.654 16.656-16.654 43.682 0 60.336 16.656 16.656 43.682 16.656 60.336 0l128.225-128.223 128.223 128.223c16.656 16.656 43.68 16.656 60.336 0 16.656-16.654 16.656-43.68 0-60.336l-128.223-128.223 128.223-128.223c16.656-16.656 16.656-43.682 0-60.336-16.656-16.656-43.68-16.656-60.336 0z" />
<glyph unicode="&#xe902;" glyph-name="03" d="M522.076-64.002c-3.391 0-6.781 0-10.195 0.016-80.267-0.197-154.431 1.843-226.556 6.234-66.124 4.022-126.484 26.874-174.562 66.077-46.39 37.829-78.070 88.977-94.156 152.009-14 54.874-14.742 108.743-15.453 160.844-0.516 37.382-1.047 81.68-1.156 126.726 0.109 45.234 0.641 89.532 1.156 126.915 0.711 52.093 1.453 105.961 15.453 160.844 16.086 63.031 47.766 114.179 94.156 152.007 48.078 39.203 108.439 62.055 174.57 66.078 72.124 4.383 146.305 6.43 226.742 6.234 80.29 0.172 154.429-1.852 226.554-6.234 66.126-4.023 126.484-26.875 174.563-66.078 46.397-37.828 78.070-88.977 94.157-152.007 14-54.876 14.742-108.751 15.452-160.844 0.516-37.382 1.055-81.68 1.157-126.726v-0.188c-0.102-45.046-0.641-89.344-1.157-126.726-0.711-52.093-1.446-105.961-15.452-160.844-16.087-63.031-47.759-114.18-94.157-152.009-48.079-39.203-108.438-62.054-174.563-66.077-69.069-4.205-140.024-6.25-216.553-6.25zM511.881 16.013c78.961-0.186 151.46 1.804 221.891 6.087 50 3.039 93.35 19.266 128.866 48.226 32.827 26.774 55.437 63.711 67.195 109.789 11.657 45.679 12.329 94.726 12.976 142.156 0.508 37.132 1.040 81.117 1.149 125.727-0.109 44.618-0.641 88.594-1.149 125.727-0.647 47.43-1.319 96.475-12.976 142.164-11.758 46.078-34.367 83.015-67.195 109.789-35.516 28.953-78.866 45.18-128.866 48.219-70.431 4.289-142.93 6.266-221.704 6.094-78.944 0.188-151.454-1.805-221.882-6.094-50-3.039-93.352-19.266-128.868-48.219-32.828-26.774-55.437-63.711-67.195-109.789-11.656-45.689-12.328-94.726-12.977-142.164-0.508-37.165-1.039-81.172-1.148-125.821 0.109-44.454 0.641-88.47 1.148-125.633 0.649-47.43 1.32-96.477 12.977-142.156 11.758-46.078 34.367-83.016 67.195-109.789 35.516-28.953 78.868-45.181 128.868-48.218 70.429-4.291 142.952-6.289 221.696-6.095zM509.975 197.999c-137.845 0-250.001 112.148-250.001 249.999s112.157 249.999 250.001 249.999c137.851 0 249.999-112.148 249.999-249.999s-112.148-249.999-249.999-249.999zM509.975 617.998c-93.735 0-170-76.265-170-170s76.265-170 170-170c93.741 0 170 76.265 170 170s-76.259 170-170 170zM787.974 777.998c-33.133 0-60-26.859-60-60s26.868-60 60-60c33.141 0 60 26.86 60 60s-26.86 60-60 60z" />
<glyph unicode="&#xe903;" glyph-name="04" d="M511.996 876.986c-236.922 0-428.985-192.063-428.985-428.986v-428.985h428.985c236.922 0 428.987 192.065 428.987 428.985 0 236.922-192.065 428.986-428.987 428.986zM48.228-15.767l-34.783 0.004v463.763c0 275.342 223.21 498.551 498.55 498.551 275.345 0 498.552-223.208 498.552-498.551 0-275.345-223.208-498.55-498.552-498.55h-463.764l-0.004 34.783zM48.228-15.767l0.004-34.783c-19.21 0-34.786 15.578-34.786 34.787l34.783-0.004zM245.328 587.13c0 19.209 15.574 34.783 34.783 34.783h417.391c19.209 0 34.783-15.574 34.783-34.783s-15.574-34.783-34.783-34.783h-417.391c-19.209 0-34.783 15.574-34.783 34.783zM245.328 401.624c0 19.209 15.574 34.783 34.783 34.783h417.391c19.209 0 34.783-15.574 34.783-34.783s-15.574-34.783-34.783-34.783h-417.391c-19.209 0-34.783 15.574-34.783 34.783zM245.328 216.115c0 19.211 15.574 34.783 34.783 34.783h231.885c19.209 0 34.783-15.571 34.783-34.783 0-19.209-15.574-34.783-34.783-34.783h-231.885c-19.209 0-34.783 15.574-34.783 34.783z" />
<glyph unicode="&#xe904;" glyph-name="05" d="M504.703 466.735c67.764 0 126.437 24.306 174.389 72.258 47.938 47.946 72.251 106.609 72.251 174.383 0 67.75-24.306 126.421-72.258 174.382-47.954 47.937-106.625 72.242-174.383 72.242-67.774 0-126.437-24.305-174.383-72.25s-72.258-106.617-72.258-174.374c0-67.774 24.312-126.446 72.258-174.391 47.962-47.938 106.633-72.249 174.383-72.249zM372.759 845.321c36.788 36.789 79.944 54.672 131.944 54.672 51.993 0 95.156-17.883 131.953-54.672 36.788-36.797 54.68-79.961 54.68-131.945 0-52.001-17.891-95.156-54.68-131.953-36.796-36.796-79.96-54.68-131.953-54.68-51.984 0-95.14 17.889-131.944 54.68-36.798 36.788-54.688 79.952-54.688 131.953 0 51.984 17.889 95.148 54.688 131.945zM936.255 172.595c-1.382 19.954-4.18 41.718-8.296 64.702-4.155 23.157-9.507 45.048-15.913 65.055-6.625 20.681-15.618 41.101-26.751 60.672-11.538 20.312-25.1 38.001-40.321 52.556-15.913 15.225-35.398 27.468-57.928 36.397-22.454 8.882-47.337 13.384-73.953 13.384-10.453 0-20.564-4.291-40.086-17-12.016-7.836-26.071-16.898-41.759-26.921-13.414-8.548-31.586-16.556-54.030-23.806-21.899-7.086-44.134-10.68-66.087-10.68-21.936 0-44.171 3.594-66.085 10.68-22.422 7.242-40.602 15.249-53.993 23.798-15.538 9.929-29.6 18.991-41.796 26.937-19.507 12.71-29.618 17-40.071 17-26.624 0-51.499-4.51-73.945-13.4-22.516-8.913-42.007-21.156-57.937-36.397-15.219-14.563-28.781-32.244-40.312-52.548-11.117-19.571-20.117-39.983-26.742-60.68-6.398-20.007-11.75-41.89-15.906-65.047-4.125-22.952-6.914-44.726-8.297-64.725-1.359-19.556-2.047-39.907-2.047-60.469 0-53.453 16.992-96.727 50.5-128.641 33.094-31.492 76.874-47.46 130.132-47.46h493.062c53.242 0 97.022 15.968 130.124 47.46 33.516 31.891 50.508 75.18 50.508 128.649-0.008 20.632-0.702 40.985-2.071 60.484zM846.445 26.939c-21.869-20.812-50.899-30.929-88.758-30.929h-493.054c-37.868 0-66.898 10.117-88.757 30.921-21.445 20.414-31.867 48.282-31.867 85.172 0 19.188 0.633 38.132 1.898 56.32 1.234 17.844 3.758 37.446 7.5 58.274 3.695 20.57 8.398 39.875 13.992 57.35 5.367 16.759 12.688 33.352 21.766 49.336 8.664 15.235 18.632 28.305 29.632 38.836 10.289 9.851 23.259 17.914 38.539 23.962 14.133 5.593 30.015 8.655 47.258 9.116 2.101-1.116 5.845-3.25 11.907-7.203 12.335-8.038 26.554-17.211 42.273-27.249 17.719-11.297 40.546-21.5 67.82-30.306 27.884-9.015 56.322-13.593 84.548-13.593s56.672 4.577 84.539 13.586c27.296 8.819 50.117 19.016 67.858 30.327 16.087 10.281 29.907 19.188 42.242 27.234 6.062 3.946 9.806 6.087 11.907 7.203 17.25-0.461 33.133-3.523 47.272-9.116 15.274-6.048 28.244-14.119 38.531-23.962 11.002-10.523 20.969-23.593 29.635-38.844 9.085-15.976 16.413-32.578 21.772-49.32 5.601-17.5 10.314-36.796 14-57.35 3.736-20.867 6.265-40.477 7.5-58.29v-0.014c1.274-18.119 1.915-37.057 1.923-56.297-0.008-36.899-10.43-64.758-31.875-85.164z" />
<glyph unicode="&#xe905;" glyph-name="06" d="M793.090 769.818c125.819 0 228.001-103.273 228.001-230.182 0-85.818-46.182-162.909-119.636-202.908 4.001-39.638 20.001-121.093 86.181-139.273 17.455-4.729 28.728-21.455 26.545-39.273-2.181-17.82-16.726-31.637-34.909-32h-5.090c-33.091 0-216.001 7.273-334.545 166.181-76.728 103.273-99.638 214.91-64.728 313.455 29.819 98.182 117.455 164 218.182 164zM698.545 335.637c47.274-63.274 108.365-97.455 161.091-115.638-32 63.637-32 134.547-32 139.273 0 14.545 9.090 27.999 22.91 33.455 59.273 24.364 97.818 81.818 97.818 146.909 0 86.909-69.818 157.455-155.273 157.455-68.364 0-127.635-45.091-148.364-113.818-36.727-103.273 17.82-199.273 53.818-247.636zM18.546 605.818c29.454 98.182 116.727 164 217.454 164 125.819 0 228.001-103.273 228.001-230.182 0-85.818-46.182-162.909-119.636-202.908 4.001-39.638 20.001-121.093 86.181-139.273 17.455-4.729 28.728-21.455 26.545-39.273-2.181-17.82-16.726-31.637-34.909-32h-5.090c-33.091 0-216 7.273-334.546 166.181-76 102.91-98.909 214.91-64 313.455zM141.818 335.637c47.273-63.274 108.364-97.455 161.090-115.638-32 63.637-32 134.547-32 139.273 0 14.545 9.093 27.999 22.91 33.455 59.636 23.999 98.183 81.455 98.183 146.546 0 86.909-69.818 157.454-155.273 157.454-68.364 0-127.637-45.091-148.364-113.818-37.091-102.909 17.455-198.909 53.454-247.272z" />
<glyph unicode="&#xe906;" glyph-name="07" d="M512 181.333c-11.366 0-22.744 4.343-31.423 13.022l-444.445 444.445c-17.367 17.367-17.367 45.489 0 62.845s45.489 17.367 62.844 0l413.023-413.022 413.022 413.022c17.365 17.367 45.488 17.367 62.845 0 17.354-17.367 17.365-45.489 0-62.845l-444.444-444.445c-8.678-8.678-20.056-13.022-31.423-13.022z" />
<glyph unicode="&#xe907;" glyph-name="08" d="M376.439 628.857c-2.458-10.65-3.848-21.365-3.848-32.041 0-36.86 16.243-71.78 43.504-95.695-2.628-3.971-4.166-8.72-4.166-13.828v-16.853c-6.607 3.072-13.963 4.798-21.717 4.798-28.518 0-51.716-23.2-51.716-51.716 0-28.518 23.2-51.718 51.716-51.718 7.754 0 15.11 1.729 21.717 4.798v-33.354c-64.027-33.167-142.324-27.404-200.834 15.19-6.694 4.874-16.078 3.402-20.956-3.297-4.876-6.699-3.398-16.081 3.298-20.955 26.474-19.274 56.448-32.029 87.568-38.124 1.61-8.102 2.848-16.316 3.638-24.484 1.252-12.941 9.251-23.622 20.364-28.828l7.338-57.031c-14.719-9.429-24.504-25.917-24.504-44.659 0-17.687 8.718-33.37 22.073-43.006-7.24-9.066-11.586-20.541-11.586-33.018 0-17.689 8.718-33.37 22.073-43.006-7.24-9.066-11.583-20.541-11.583-33.018 0-29.231 23.781-53.012 53.010-53.012h275.724c29.229 0 53.012 23.781 53.012 53.012 0 12.478-4.344 23.951-11.586 33.018 13.355 9.636 22.073 25.315 22.073 43.006 0 12.478-4.344 23.951-11.583 33.018 13.353 9.636 22.071 25.317 22.071 43.006 0 18.741-9.783 35.232-24.504 44.659l7.34 57.045c11.129 5.226 19.126 15.954 20.347 28.951 4.59 48.773 22.79 94.247 52.63 131.51 48.351 60.373 75 136.282 75.063 213.772h1.43c34.173 0 61.975 27.8 61.975 61.972s-27.802 61.972-61.975 61.972h-24.437c-4.489 11.596-9.64 22.995-15.385 34.062 14.119 9.378 23.45 25.418 23.45 43.602 0 28.848-23.468 52.316-52.316 52.316h-45.812c-0.731 1.144-1.622 2.214-2.689 3.158-61.469 54.366-140.534 84.868-222.626 85.888-89.883 1.188-175.51-32.692-240.946-95.206-65.46-62.538-103.086-146.473-105.944-236.345-0.018-0.582-0.024-1.165-0.040-1.747-2.028-0.123-4.060-0.371-6.086-0.774-14.724-2.945-26.938-13.003-32.666-26.905-28.752-69.751-20.468-148.429 22.154-210.461 2.908-4.233 7.602-6.509 12.376-6.509 2.928 0 5.886 0.856 8.48 2.638 6.828 4.692 8.56 14.031 3.87 20.859-36.862 53.645-44.018 121.7-19.144 182.043 1.928 4.68 5.868 7.93 10.808 8.917 4.878 0.973 9.71-0.485 13.242-4.018l57.128-57.127c20.796-20.793 54.632-20.795 75.426 0 10.074 10.072 15.624 23.466 15.624 37.712s-5.548 27.64-15.622 37.712l-57.132 57.133c-3.548 3.545-5.020 8.409-4.040 13.343 0.964 4.85 4.12 8.708 8.654 10.586 38.315 15.868 80.962 18.85 121.105 8.673-2.568-13.963-4.344-28.328-5.276-43.065-0.655-10.41 3.281-20.949 10.437-28.572zM774.697 766.289c4.477-8.25 8.585-16.723 12.304-25.347h-74.056c-6.986 0-12.671 5.685-12.671 12.673s5.685 12.674 12.671 12.674h61.751zM238.699 719.54c-13.744-5.693-23.69-17.824-26.598-32.451-2.928-14.709 1.652-29.817 12.246-40.413l57.134-57.131c4.406-4.407 6.835-10.267 6.835-16.499s-2.429-12.091-6.836-16.499c-9.1-9.103-23.9-9.095-33 0l-57.128 57.129c-1.384 1.384-2.848 2.658-4.374 3.832 0.002 3.305 0.044 6.642 0.148 9.957 5.33 167.619 145.196 302.532 312.657 302.532 1.29 0 2.589-0.008 3.879-0.024 64.532-0.802 127.009-21.59 178.94-59.050h-138.605c-63.967 0-122.509-37.316-149.135-95.066-6.771-14.686-12.382-30.097-16.849-46.134-46.203 11.571-95.235 8.071-139.313-10.183zM451.475 512.44c-29.604 17.394-48.884 50.088-48.884 84.376 0 6.664 0.723 13.41 2.007 20.181h64.774c8.286 0 15.002 6.713 15.002 15s-6.715 15-15.002 15h-55.611c16.656 40.46 48.341 78.612 69.759 101.513 2.224 2.378 4.866 2.449 6.24 2.265 1.382-0.174 3.936-0.893 5.507-3.76 10.4-18.991 26.796-35.572 44.159-53.125 15.284-15.458 30.173-30.513 40.952-46.891h-40.215c-8.286 0-15-6.713-15-15s6.713-15 15-15h54.032c2.712-10.449 3.443-21.629 1.479-33.866-4.747-29.567-22.876-55.878-48.587-70.691h-14.641c5.497 12.442 9.409 28.905 11.516 49.046 0.864 8.239-5.118 15.618-13.357 16.478-8.227 0.877-15.618-5.118-16.478-13.357-3.377-32.293-11.205-45.492-14.612-48.998-4.903 4.749-13.824 24.547-15.43 64.201-0.328 8.069-6.971 14.391-14.979 14.391-0.203 0-0.41-0.004-0.616-0.012-8.278-0.336-14.715-7.318-14.381-15.596 1.1-27.154 5.599-49.938 12.769-66.154h-15.403zM663.689 239.313l-5.82-45.24h-316.35l-5.818 45.24h327.989zM648.045 42.025h-296.702c-12.689 0-23.011 10.322-23.011 23.011s10.322 23.011 23.011 23.011h296.702c12.689 0 23.011-10.322 23.011-23.011s-10.322-23.011-23.011-23.011zM340.855 118.049c-12.689 0-23.011 10.322-23.011 23.011 0 12.691 10.322 23.013 23.011 23.013h317.678c12.689 0 23.011-10.322 23.011-23.013 0-12.689-10.322-23.011-23.011-23.011h-317.678zM557.457 482.439v-58.905h-115.528v58.905h115.528zM390.212 401.801c-11.975 0-21.717 9.742-21.717 21.719 0 11.975 9.742 21.715 21.717 21.715 11.977 0 21.717-9.74 21.717-21.715 0-11.977-9.74-21.719-21.717-21.719zM323.979 291.897c29.913 0 59.896 6.009 87.951 18.141v-40.724h-91.501c-3.041 0-5.64 2.263-5.923 5.155-0.571 5.921-1.364 11.862-2.327 17.779 3.928-0.209 7.86-0.35 11.799-0.35zM637.557-33.999h-275.726c-12.689 0-23.011 10.322-23.011 23.011s10.322 23.011 23.011 23.011h275.724c12.689 0 23.011-10.322 23.011-23.011s-10.322-23.011-23.009-23.011zM743.938 421.978c-33.511-41.847-53.942-92.834-59.079-147.454-0.276-2.922-2.879-5.21-5.927-5.21h-91.474v30.814c0 8.286-6.715 15-15 15s-15.002-6.713-15.002-15v-30.812h-115.528v124.217h115.528v-22.618c0-8.286 6.715-15 15.002-15 8.284 0 15 6.713 15 15v116.378c0 5.296-1.655 10.207-4.461 14.264 22.231 19.745 37.517 47.012 42.301 76.818 2.234 13.912 1.911 26.714-0.299 38.621h187.419c-0.059-71.717-23.734-139.149-68.481-195.019zM843.85 646.996h-228.946c-12.894 26.253-34.267 47.888-54.145 67.987-15.839 16.015-30.798 31.14-39.176 46.44-5.825 10.632-16.052 17.602-28.066 19.116-12.003 1.508-23.632-2.692-31.906-11.538-21.373-22.851-44.898-51.718-62.398-83.212 4.264 27.736 11.919 53.709 22.89 77.506 21.744 47.158 69.591 77.628 121.893 77.628h231.164c12.302 0 22.315-10.012 22.315-22.316s-10.013-22.316-22.315-22.316h-62.212c-23.529 0-42.672-19.142-42.672-42.675s19.143-42.674 42.672-42.674h130.902c17.629 0 31.973-14.344 31.973-31.971 0-17.629-14.342-31.975-31.973-31.975zM255.589 382.11c28.518 0 51.715 23.202 51.715 51.718 0 28.518-23.199 51.716-51.715 51.716s-51.718-23.2-51.718-51.716c0-28.516 23.2-51.718 51.718-51.718zM255.589 455.547c11.974 0 21.716-9.742 21.716-21.717 0-11.977-9.742-21.717-21.716-21.717-11.976 0-21.718 9.74-21.718 21.717 0 11.975 9.742 21.717 21.718 21.717zM165.447 869.796c2.926-2.908 6.75-4.362 10.574-4.362 3.854 0 7.708 1.476 10.638 4.426 5.84 5.876 5.812 15.372-0.064 21.212l-15.768 15.674c-5.874 5.838-15.372 5.81-21.212-0.064-5.84-5.876-5.812-15.372 0.064-21.212l15.768-15.674zM207.468 909.38c1.708-6.81 7.82-11.356 14.538-11.356 1.208 0 2.436 0.146 3.66 0.456 8.036 2.016 12.916 10.162 10.9 18.198l-5.468 21.804c-2.016 8.038-10.172 12.928-18.198 10.9-8.036-2.016-12.916-10.162-10.9-18.198l5.468-21.804zM118.277 825.038l21.842-5.344c1.198-0.292 2.396-0.434 3.576-0.434 6.75 0 12.882 4.59 14.558 11.44 1.968 8.046-2.958 16.166-11.006 18.134l-21.842 5.344c-8.046 1.96-16.166-2.958-18.134-11.006s2.96-16.166 11.006-18.134zM853.367 865.434c3.824 0 7.649 1.454 10.574 4.362l15.768 15.674c5.878 5.842 5.904 15.338 0.066 21.212-5.841 5.874-15.34 5.902-21.213 0.064l-15.768-15.674c-5.876-5.842-5.904-15.338-0.063-21.212 2.929-2.95 6.783-4.426 10.637-4.426zM803.725 898.48c1.225-0.308 2.451-0.456 3.66-0.456 6.715 0 12.831 4.544 14.539 11.356l5.468 21.804c2.015 8.036-2.867 16.182-10.899 18.198-8.030 2.024-16.183-2.864-18.199-10.9l-5.468-21.804c-2.015-8.036 2.863-16.182 10.899-18.198zM922.118 843.172c-1.966 8.046-10.086 12.966-18.135 11.006l-21.842-5.344c-8.047-1.968-12.974-10.088-11.006-18.134 1.675-6.85 7.809-11.44 14.557-11.44 1.182 0 2.38 0.14 3.578 0.434l21.842 5.344c8.045 1.968 12.974 10.088 11.006 18.134z" />
<glyph unicode="&#xe908;" glyph-name="09" d="M576-64h-128c-4.243 0-8.313 1.686-11.313 4.686s-4.686 7.070-4.686 11.313v432.001c0 8.487 3.371 16.626 9.372 22.628 6.001 6.001 14.139 9.372 22.626 9.372h96.002c8.487 0 16.626-3.371 22.626-9.372 6.001-6.003 9.372-14.141 9.372-22.628v-432.001c0-4.243-1.686-8.313-4.686-11.313s-7.070-4.686-11.313-4.686zM463.999-32h96.002v416h-96.002v-416zM368.001-64h-128c-4.246 0-8.315 1.686-11.315 4.686s-4.686 7.070-4.686 11.313v240.001c0 8.487 3.371 16.626 9.372 22.628 6.003 6.001 14.141 9.372 22.628 9.372h96c8.487 0 16.626-3.371 22.628-9.372 6.001-6.003 9.372-14.141 9.372-22.628v-240.001c0-4.243-1.686-8.313-4.686-11.313s-7.070-4.686-11.313-4.686zM256-32h96v224h-96v-224zM160-64h-128c-4.243 0-8.313 1.686-11.314 4.686s-4.686 7.070-4.686 11.313v112.001c0 8.487 3.371 16.626 9.373 22.628 6.001 6.001 14.14 9.372 22.627 9.372h96c8.487 0 16.626-3.371 22.627-9.372 6.001-6.003 9.373-14.141 9.373-22.628v-112.001c0-4.243-1.686-8.313-4.686-11.313s-7.070-4.686-11.314-4.686zM48-32h96v96h-96v-96zM783.999-64h-128c-4.243 0-8.313 1.686-11.313 4.686s-4.686 7.072-4.686 11.313v656.001c0 8.487 3.371 16.626 9.372 22.628 6.003 6.001 14.141 9.372 22.628 9.372h96c8.487 0 16.626-3.371 22.628-9.372 6.001-6.003 9.372-14.141 9.372-22.628v-656.001c0-4.241-1.686-8.313-4.686-11.313s-7.070-4.686-11.315-4.686zM672-32h96v640h-96v-640zM992-64h-128c-4.243 0-8.313 1.686-11.313 4.686s-4.688 7.072-4.688 11.313v848.001c0 8.487 3.373 16.626 9.374 22.627s14.139 9.373 22.628 9.373h95.998c8.489 0 16.628-3.371 22.628-9.373s9.374-14.14 9.374-22.627v-64h-32.002v64h-95.998v-832h95.998v672h32.002v-688.001c0-4.241-1.688-8.313-4.688-11.313s-7.070-4.686-11.313-4.686zM975.999 704h32.002v-32.016h-32.002v32.016zM478.015 733.905c-1.348 10.088-3.379 20.074-6.078 29.887l30.847 8.512c3.092-11.225 5.413-22.65 6.945-34.193l-31.713-4.207zM256 448c-50.405 0-99.687 14.881-141.669 42.775s-74.796 67.561-94.327 114.026c-19.531 46.467-24.911 97.665-15.465 147.175s33.298 95.132 68.565 131.144c29.329 29.957 65.567 52.253 105.529 64.928 39.963 12.675 82.426 15.342 123.659 7.766s79.976-25.163 112.824-51.215c32.846-26.052 58.792-59.773 75.557-98.199l-29.313-12.8c-17.408 39.978-46.119 73.998-82.604 97.876s-79.151 36.573-122.755 36.524h-2.367c-44.2-0.467-87.273-14.001-123.797-38.896s-64.866-60.041-81.457-101.011c-16.591-40.97-20.691-85.932-11.782-129.227s30.427-82.985 61.846-114.076c31.419-31.091 71.335-52.191 114.721-60.643 43.385-8.454 88.302-3.881 129.096 13.14 40.792 17.021 75.637 45.732 100.147 82.514 24.51 36.784 37.591 79.997 37.593 124.199h32c-0.209-67.373-26.884-131.967-74.275-179.855-47.391-47.886-111.702-75.233-179.069-76.145h-2.656zM240.001 864h31.998v-48h-31.998v48zM280.001 576h-88.001v32h88.001c10.609 0 20.783 4.215 28.283 11.717 7.502 7.5 11.717 17.674 11.717 28.283s-4.215 20.783-11.717 28.285c-7.5 7.502-17.674 11.717-28.283 11.717h-48.001c-19.096 0-37.409 7.584-50.911 21.088-13.502 13.502-21.088 31.816-21.088 50.911s7.586 37.409 21.088 50.912c13.503 13.502 31.816 21.088 50.911 21.088h88.001v-32h-88.001c-10.609 0-20.783-4.214-28.284-11.716s-11.716-17.675-11.716-28.284c0-10.608 4.214-20.783 11.716-28.285s17.675-11.717 28.284-11.717h48.001c19.096 0 37.409-7.584 50.911-21.088 13.502-13.502 21.088-31.816 21.088-50.911s-7.586-37.409-21.088-50.911c-13.502-13.502-31.816-21.088-50.911-21.088zM240.001 591.999h31.998v-47.999h-31.998v47.999zM16-32h992.001v-32h-992.001v32zM91.312 180.689l-22.624 22.622 175.999 176.001c3 3 7.070 4.688 11.313 4.688h88.928l315.199 346.767c1.503 1.653 3.336 2.974 5.382 3.875 2.044 0.901 4.256 1.364 6.49 1.358h40.641l187.216 218.416 24.287-20.8-192-224c-1.499-1.757-3.361-3.168-5.458-4.137-2.095-0.971-4.377-1.475-6.687-1.479h-40.927l-315.232-346.767c-1.501-1.649-3.328-2.966-5.368-3.867-2.038-0.901-4.243-1.366-6.472-1.366h-89.377l-171.312-171.311zM4.596 139.397l31.995 31.996 22.627-22.628-31.995-31.996-22.627 22.628zM928 864h-32v64h-64v32h79.999c4.246 0 8.315-1.686 11.315-4.686s4.686-7.070 4.686-11.314v-80z" />
<glyph unicode="&#xe909;" glyph-name="10" d="M880 298.001h-800v433.331c0.015 13.257 5.287 25.966 14.661 35.34s22.083 14.646 35.339 14.661h366.666v33.333h-366.666c-22.094-0.025-43.276-8.813-58.898-24.435s-24.41-36.804-24.435-58.899v-516.666c0.025-22.093 8.813-43.275 24.435-58.899 15.623-15.622 36.804-24.41 58.898-24.435h208.059l-35.714-83.332h-72.345c-13.261 0-25.978-5.267-35.355-14.645-9.377-9.376-14.645-22.093-14.645-35.356 0-13.261 5.268-25.978 14.645-35.354 9.377-9.378 22.095-14.645 35.355-14.645h500.001c13.261 0 25.978 5.267 35.354 14.645 9.378 9.376 14.645 22.093 14.645 35.354 0 13.263-5.267 25.98-14.645 35.356-9.376 9.378-22.093 14.645-35.354 14.645h-72.346l-35.714 83.332h208.058c22.095 0.026 43.277 8.813 58.899 24.435 15.622 15.625 24.41 36.806 24.435 58.899v283.334h-33.333v-200zM746.667-2.001c-0.004-4.418-1.762-8.655-4.887-11.778-3.123-3.125-7.36-4.883-11.778-4.887h-500.001c-4.42 0-8.66 1.756-11.785 4.881s-4.881 7.366-4.881 11.785c0 4.42 1.756 8.661 4.881 11.787s7.365 4.881 11.785 4.881h500.001c4.418-0.004 8.655-1.762 11.778-4.887 3.125-3.123 4.883-7.36 4.887-11.78zM621.391 48h-282.782l35.714 83.332h211.354l35.714-83.332zM829.999 164.668h-699.999c-13.256 0.013-25.965 5.286-35.339 14.66s-14.646 22.082-14.661 35.339v49.999h800v-49.999c-0.015-13.257-5.289-25.965-14.66-35.339-9.374-9.374-22.084-14.647-35.341-14.66zM463.334 231.332h33.331v-33.333h-33.331v33.333zM969.711 753.871c2.611 2.24 4.467 5.235 5.31 8.572s0.631 6.853-0.604 10.066l-19.94 51.842c-1.235 3.212-3.435 5.962-6.298 7.874-2.861 1.912-6.244 2.891-9.683 2.803l-45.372-1.156-19.936 20.981 3.477 45.252c0.265 3.432-0.542 6.861-2.304 9.816-1.764 2.956-4.401 5.293-7.546 6.69l-50.763 22.558c-3.145 1.398-6.645 1.788-10.020 1.116s-6.46-2.371-8.832-4.867l-31.262-32.9-28.934 0.738-29.545 34.456c-2.24 2.612-5.235 4.466-8.57 5.308-3.337 0.842-6.852 0.631-10.063-0.604l-51.844-19.94c-3.213-1.236-5.963-3.435-7.874-6.297s-2.891-6.244-2.803-9.685l1.156-45.369-20.981-19.94-45.252 3.479c-3.43 0.263-6.861-0.542-9.815-2.305s-5.293-4.398-6.69-7.543l-22.558-50.765c-1.399-3.145-1.788-6.645-1.116-10.020 0.67-3.375 2.37-6.46 4.864-8.83l32.9-31.265-0.738-28.934-34.453-29.542c-2.613-2.24-4.467-5.235-5.31-8.572s-0.631-6.854 0.604-10.065l19.94-51.842c1.246-3.204 3.447-5.95 6.306-7.859s6.238-2.895 9.675-2.818l45.372 1.156 19.934-20.981-3.477-45.252c-0.262-3.43 0.542-6.861 2.306-9.815 1.764-2.957 4.399-5.293 7.546-6.69l50.756-22.558c3.145-1.399 6.645-1.788 10.020-1.118 3.375 0.672 6.46 2.372 8.83 4.866l31.264 32.9 28.934-0.736 29.545-34.458c2.24-2.611 5.233-4.465 8.57-5.308s6.852-0.631 10.063 0.604l51.844 19.94c3.213 1.235 5.963 3.435 7.874 6.295 1.911 2.863 2.891 6.244 2.803 9.685l-1.156 45.37 20.981 19.938 45.259-3.479c3.43-0.262 6.859 0.542 9.815 2.306 2.955 1.762 5.293 4.399 6.69 7.543l22.558 50.756c1.397 3.145 1.788 6.643 1.116 10.020-0.672 3.375-2.37 6.458-4.866 8.83l-32.898 31.264 0.738 28.934 34.453 29.551zM906.187 676.333l29.745-28.267-13.015-29.259-40.909 3.138c-2.325 0.181-4.663-0.13-6.861-0.911-2.197-0.783-4.205-2.018-5.894-3.627l-31.721-30.14c-1.69-1.606-3.023-3.548-3.917-5.7-0.892-2.153-1.323-4.469-1.265-6.799l1.041-41.018-29.888-11.494-26.707 31.147c-1.519 1.771-3.392 3.202-5.498 4.203s-4.399 1.549-6.731 1.609l-43.748 1.116c-0.143 0-0.284 0-0.418 0-2.259 0-4.497-0.459-6.575-1.35-2.076-0.892-3.951-2.195-5.508-3.834l-28.265-29.745-29.246 13.015 3.138 40.907c0.179 2.325-0.132 4.661-0.913 6.859-0.783 2.197-2.016 4.207-3.622 5.897l-30.142 31.723c-1.6 1.696-3.541 3.034-5.696 3.925-2.155 0.894-4.474 1.321-6.803 1.254l-41.018-1.041-11.497 29.886 31.147 26.707c1.771 1.519 3.202 3.39 4.205 5.498 1.001 2.106 1.549 4.399 1.609 6.729l1.118 43.75c0.060 2.33-0.373 4.646-1.265 6.8s-2.227 4.095-3.917 5.7l-29.749 28.254 13.015 29.26 40.907-3.137c2.325-0.176 4.663 0.137 6.859 0.919s4.207 2.014 5.899 3.619l31.721 30.14c1.69 1.606 3.023 3.548 3.915 5.701 0.894 2.153 1.325 4.469 1.267 6.799l-1.041 41.017 29.886 11.496 26.709-31.148c1.517-1.767 3.388-3.197 5.491-4.196s4.393-1.548 6.72-1.608l43.75-1.117c2.332-0.073 4.653 0.351 6.807 1.244 2.157 0.893 4.096 2.234 5.694 3.936l28.265 29.744 29.259-13.015-3.136-40.906c-0.179-2.325 0.132-4.662 0.913-6.86s2.016-4.206 3.622-5.897l30.142-31.723c1.602-1.694 3.543-3.031 5.696-3.923 2.155-0.893 4.474-1.321 6.803-1.256l41.018 1.042 11.494-29.888-31.138-26.693c-1.771-1.519-3.204-3.39-4.205-5.498-1.001-2.106-1.549-4.399-1.609-6.731l-1.118-43.748c-0.060-2.332 0.371-4.649 1.263-6.801 0.894-2.155 2.227-4.096 3.917-5.702zM704.081 825.388c-21.899-8.423-40.806-23.15-54.334-42.319-13.53-19.169-21.069-41.919-21.668-65.375-0.599-23.454 5.771-46.56 18.304-66.394s30.667-35.507 52.107-45.035c21.44-9.53 45.222-12.486 68.343-8.497 23.121 3.987 44.54 14.743 61.549 30.903 17.007 16.162 28.841 37.005 34.005 59.891s3.422 46.79-5.001 68.689c-11.324 29.342-33.824 52.993-62.564 65.767s-61.374 13.625-90.741 2.368zM777.293 635.059c-15.746-6.059-32.934-7.311-49.391-3.599s-31.443 12.22-43.063 24.448c-11.622 12.228-19.356 27.629-22.225 44.252-2.869 16.625-0.745 33.726 6.108 49.143 6.85 15.417 18.118 28.455 32.378 37.468s30.876 13.593 47.74 13.164 33.222-5.85 47.006-15.577c13.783-9.726 24.373-23.322 30.432-39.068 8.094-21.114 7.484-44.578-1.698-65.244-9.184-20.666-26.189-36.845-47.285-44.988zM208.453 626.451l-38.217 38.214 38.217 38.217-23.571 23.569-50-49.999c-1.548-1.549-2.775-3.386-3.613-5.408s-1.269-4.19-1.269-6.379c0-2.187 0.431-4.354 1.269-6.377s2.065-3.859 3.613-5.408l50-49.999 23.571 23.569zM341.786 602.882l50.001 49.999c1.547 1.549 2.775 3.386 3.612 5.408s1.269 4.19 1.269 6.377c0 2.189-0.431 4.356-1.269 6.379-0.836 2.022-2.065 3.859-3.612 5.408l-50.001 49.999-23.571-23.569 38.217-38.217-38.217-38.214 23.571-23.569zM230.57 601.869l33.398 133.314 32.333-8.1-33.397-133.314-32.333 8.1zM130 564.668h33.333v-33.335h-33.333v33.335zM196.667 564.668h316.667v-33.335h-316.667v33.335zM130 498.001h33.333v-33.335h-33.333v33.335zM196.667 498.001h366.666v-33.335h-366.666v33.335zM130 431.334h33.333v-33.335h-33.333v33.335zM196.667 431.334h416.667v-33.335h-416.667v33.335zM130 364.668h33.333v-33.335h-33.333v33.335zM196.667 364.668h499.999v-33.335h-499.999v33.335zM730.001 364.668h33.331v-33.335h-33.331v33.335zM713.333 431.334h33.333v-33.335h-33.333v33.335zM646.667 431.334h33.333v-33.335h-33.333v33.335zM796.668 364.668h33.331v-33.335h-33.331v33.335z" />
<glyph unicode="&#xe90a;" glyph-name="11" d="M512 39.952c-2.384 0-4.768 0.528-6.975 1.599l-496 240.001c-7.952 3.854-11.28 13.423-7.44 21.375 3.84 7.92 13.376 11.248 21.376 7.44l489.040-236.64 489.023 236.624c8.016 3.807 17.537 0.479 21.377-7.44 3.84-7.952 0.512-17.519-7.44-21.375l-495.999-240.001c-2.193-1.055-4.577-1.583-6.961-1.583zM512-40.049c-2.384 0-4.768 0.528-6.975 1.602l-496 239.999c-7.952 3.856-11.28 13.425-7.44 21.377 3.84 7.936 13.376 11.264 21.376 7.438l489.040-236.64 489.023 236.626c8.016 3.824 17.537 0.496 21.377-7.44 3.84-7.952 0.512-17.521-7.44-21.377l-495.999-239.999c-2.193-1.057-4.577-1.585-6.961-1.585zM16 199.952c-8.848 0-16 7.152-16 15.999v80.001c0 8.847 7.152 15.999 16 15.999s16-7.152 16-15.999v-80.001c0-8.847-7.152-15.999-16-15.999zM1008.001 199.952c-8.849 0-16.001 7.152-16.001 15.999v80.001c0 8.847 7.152 15.999 16.001 15.999 8.847 0 15.999-7.152 15.999-15.999v-80.001c0-8.847-7.152-15.999-15.999-15.999zM512-40.049c-8.847 0-15.999 7.152-15.999 16.001v79.999c0 8.849 7.152 16.001 15.999 16.001s15.999-7.152 15.999-16.001v-79.999c0-8.849-7.152-16.001-15.999-16.001zM672.479 77.375c-8.847 0-16.079 7.152-16.079 16.001 0 8.847 7.072 15.999 15.903 15.999h0.176c8.833 0 16.001-7.152 16.001-15.999 0-8.849-7.168-16.001-16.001-16.001zM912.48 193.503c-8.847 0-16.081 7.154-16.081 16.001s7.072 15.999 15.905 15.999h0.176c8.831 0 15.999-7.152 15.999-15.999s-7.168-16.001-15.999-16.001zM832.479 154.8c-8.847 0-16.079 7.152-16.079 15.999 0 8.849 7.072 16.001 15.903 16.001h0.176c8.833 0 16.001-7.152 16.001-16.001 0-8.847-7.168-15.999-16.001-15.999zM752.48 116.081c-8.847 0-16.081 7.152-16.081 15.999s7.072 16.001 15.905 16.001h0.176c8.831 0 15.999-7.154 15.999-16.001s-7.168-15.999-15.999-15.999zM592.48 38.656c-8.847 0-16.081 7.152-16.081 16.001 0 8.847 7.072 15.999 15.905 15.999h0.176c8.831 0 15.999-7.152 15.999-15.999 0-8.849-7.168-16.001-15.999-16.001zM352.479 77.375c-8.847 0-16.079 7.152-16.079 16.001 0 8.847 7.072 15.999 15.903 15.999h0.176c8.833 0 16.001-7.152 16.001-15.999 0-8.849-7.168-16.001-16.001-16.001zM112.48 193.503c-8.848 0-16.080 7.154-16.080 16.001s7.072 15.999 15.904 15.999h0.176c8.832 0 16-7.152 16-15.999s-7.168-16.001-16-16.001zM192.48 154.8c-8.848 0-16.080 7.152-16.080 15.999 0 8.849 7.072 16.001 15.904 16.001h0.176c8.832 0 16-7.152 16-16.001 0-8.847-7.168-15.999-16-15.999zM272.48 116.081c-8.847 0-16.081 7.152-16.081 15.999s7.072 16.001 15.905 16.001h0.176c8.831 0 15.999-7.154 15.999-16.001s-7.168-15.999-15.999-15.999zM432.48 38.656c-8.847 0-16.081 7.152-16.081 16.001 0 8.847 7.072 15.999 15.905 15.999h0.176c8.831 0 15.999-7.152 15.999-15.999 0-8.849-7.168-16.001-15.999-16.001zM286.128 410.624c-5.951 0-11.663 3.328-14.416 9.023-3.84 7.952-0.512 17.537 7.44 21.377l65.886 31.871c8.032 3.824 17.537 0.496 21.377-7.44 3.84-7.95 0.512-17.535-7.44-21.375l-65.888-31.873c-2.255-1.071-4.639-1.583-6.959-1.583zM16.017 279.951c-5.952 0-11.664 3.328-14.416 9.026-3.84 7.95-0.512 17.535 7.44 21.375l182.336 88.207c8.032 3.809 17.536 0.481 21.376-7.438 3.84-7.952 0.512-17.537-7.44-21.377l-182.335-88.191c-2.256-1.090-4.64-1.602-6.96-1.602zM737.808 410.671c-2.337 0-4.704 0.512-6.959 1.602l-65.808 31.84c-7.952 3.854-11.28 13.423-7.44 21.375 3.856 7.92 13.392 11.248 21.377 7.44l65.806-31.84c7.952-3.856 11.28-13.425 7.44-21.377-2.753-5.712-8.464-9.040-14.416-9.040zM1007.985 279.951c-2.337 0-4.704 0.512-6.959 1.602l-182.368 88.24c-7.952 3.854-11.28 13.423-7.44 21.375 3.856 7.936 13.392 11.264 21.375 7.44l182.368-88.24c7.952-3.856 11.28-13.425 7.44-21.377-2.753-5.712-8.464-9.040-14.416-9.040zM512 199.92c-2.447 0-4.911 0.561-7.152 1.679l-160 80.017c-7.905 3.953-11.104 13.568-7.152 21.471 3.967 7.905 13.568 11.071 21.471 7.152l152.832-76.431 152.848 76.431c7.903 3.92 17.521 0.754 21.471-7.152 3.953-7.903 0.752-17.519-7.152-21.471l-160-80.017c-2.257-1.118-4.721-1.679-7.168-1.679zM512 744.032c-2.447 0-4.911 0.56-7.152 1.68l-160 80.016c-7.905 3.952-11.104 13.568-7.152 21.472 3.967 7.904 13.568 11.072 21.471 7.152l152.832-76.432 152.848 76.432c7.903 3.92 17.521 0.752 21.471-7.152 3.953-7.904 0.752-17.52-7.152-21.472l-160-80.016c-2.257-1.12-4.721-1.68-7.168-1.68zM671.984 824.032c-2.4 0-4.848 0.544-7.135 1.68l-152.848 76.448-152.848-76.432c-7.903-3.92-17.504-0.752-21.471 7.152-3.953 7.904-0.752 17.52 7.152 21.472l160 80.016c4.495 2.256 9.808 2.256 14.32 0l160-80.016c7.903-3.952 11.104-13.568 7.152-21.472-2.8-5.616-8.448-8.848-14.32-8.848zM512 199.92c-8.847 0-15.999 7.152-15.999 16.001v544.127c0 8.848 7.152 16 15.999 16s15.999-7.152 15.999-16v-544.127c0-8.849-7.152-16.001-15.999-16.001zM672 279.935c-8.847 0-16.001 7.154-16.001 16.001v544.128c0 8.848 7.154 16 16.001 16s16.001-7.152 16.001-16v-544.128c0-8.847-7.154-16.001-16.001-16.001zM352 279.935c-8.847 0-16.001 7.154-16.001 16.001v544.128c0 8.848 7.154 16 16.001 16s16.001-7.152 16.001-16v-544.128c0-8.847-7.154-16.001-16.001-16.001zM463.968 303.999c-2.4 0-4.848 0.545-7.135 1.681l-64.016 32.016c-7.903 3.951-11.104 13.568-7.152 21.471 3.967 7.903 13.568 11.071 21.471 7.152l64.016-32.016c7.903-3.951 11.104-13.568 7.152-21.471-2.816-5.599-8.464-8.833-14.336-8.833zM463.968 367.999c-2.4 0-4.848 0.545-7.135 1.681l-64.016 32.016c-7.903 3.951-11.104 13.568-7.152 21.471 3.967 7.903 13.568 11.071 21.471 7.152l64.016-32.016c7.903-3.951 11.104-13.568 7.152-21.471-2.816-5.599-8.464-8.833-14.336-8.833zM463.968 431.999c-2.4 0-4.848 0.545-7.135 1.681l-64.016 32.016c-7.903 3.951-11.104 13.568-7.152 21.471 3.967 7.903 13.568 11.088 21.471 7.152l64.016-32.016c7.903-3.951 11.104-13.568 7.152-21.471-2.816-5.599-8.464-8.833-14.336-8.833zM463.968 495.999c-2.4 0-4.848 0.545-7.135 1.681l-64.016 32.016c-7.903 3.951-11.104 13.568-7.152 21.471 3.967 7.92 13.568 11.071 21.471 7.152l64.016-32.016c7.903-3.951 11.104-13.568 7.152-21.471-2.816-5.599-8.464-8.833-14.336-8.833zM463.968 560.001c-2.4 0-4.848 0.543-7.135 1.679l-64.016 32.016c-7.903 3.951-11.104 13.568-7.152 21.471 3.967 7.903 13.568 11.071 21.471 7.152l64.016-32.016c7.903-3.951 11.104-13.568 7.152-21.471-2.816-5.599-8.464-8.831-14.336-8.831zM463.968 624.001c-2.4 0-4.848 0.543-7.135 1.679l-64.016 32.016c-7.903 3.951-11.104 13.568-7.152 21.471 3.967 7.903 13.568 11.088 21.471 7.152l64.016-32.016c7.903-3.951 11.104-13.568 7.152-21.471-2.816-5.599-8.464-8.831-14.336-8.831zM463.968 687.999c-2.4 0-4.848 0.545-7.135 1.681l-64.016 32.016c-7.903 3.951-11.104 13.567-7.152 21.471 3.967 7.904 13.568 11.088 21.471 7.152l64.016-32.017c7.903-3.951 11.104-13.568 7.152-21.471-2.816-5.599-8.464-8.833-14.336-8.833zM560.032 303.999c-5.872 0-11.52 3.234-14.336 8.849-3.953 7.903-0.752 17.519 7.152 21.471l64.016 32.016c7.905 3.92 17.521 0.752 21.473-7.152s0.752-17.521-7.154-21.473l-64.014-32.014c-2.29-1.153-4.737-1.698-7.137-1.698zM560.032 367.999c-5.872 0-11.52 3.234-14.336 8.849-3.953 7.903-0.752 17.519 7.152 21.471l64.016 32.016c7.905 3.92 17.521 0.752 21.473-7.152s0.752-17.521-7.154-21.473l-64.014-32.014c-2.29-1.153-4.737-1.698-7.137-1.698zM560.032 432.001c-5.872 0-11.52 3.232-14.336 8.847-3.953 7.903-0.752 17.521 7.152 21.471l64.016 32.016c7.905 3.936 17.521 0.752 21.473-7.152s0.752-17.521-7.154-21.473l-64.014-32.014c-2.29-1.153-4.737-1.696-7.137-1.696zM560.032 496.001c-5.872 0-11.52 3.232-14.336 8.847-3.953 7.903-0.752 17.521 7.152 21.471l64.016 32.016c7.905 3.92 17.521 0.768 21.473-7.152 3.951-7.905 0.752-17.521-7.154-21.473l-64.014-32.014c-2.29-1.153-4.737-1.696-7.137-1.696zM560.032 560.001c-5.872 0-11.52 3.232-14.336 8.847-3.953 7.903-0.752 17.521 7.152 21.471l64.016 32.016c7.905 3.92 17.521 0.752 21.473-7.152s0.752-17.521-7.154-21.473l-64.014-32.014c-2.29-1.153-4.737-1.696-7.137-1.696zM560.032 624.001c-5.872 0-11.52 3.232-14.336 8.847-3.953 7.903-0.752 17.521 7.152 21.471l64.016 32.016c7.905 3.936 17.521 0.752 21.473-7.152s0.752-17.521-7.154-21.473l-64.014-32.014c-2.29-1.153-4.737-1.696-7.137-1.696zM560.032 688.001c-5.872 0-11.52 3.232-14.336 8.847-3.953 7.903-0.752 17.521 7.152 21.471l64.016 32.016c7.905 3.936 17.521 0.752 21.473-7.152s0.752-17.52-7.154-21.473l-64.014-32.014c-2.29-1.153-4.737-1.696-7.137-1.696zM783.999 344.001c-35.295 0-64 28.703-64 64 0 18.256 18.432 128.063 64 128.063s64-109.808 64-128.063c0-35.297-28.703-64-64-64zM783.999 503.712c-12.638-7.76-31.998-69.327-31.998-95.711 0-17.648 14.35-32 31.998-32 17.65 0 32.002 14.352 32.002 32 0 26.384-19.362 87.951-32.002 95.711zM783.999 280.048c-8.847 0-15.999 7.152-15.999 16.001v111.952c0 8.847 7.152 15.999 15.999 15.999 8.849 0 16.001-7.152 16.001-15.999v-111.952c0-8.849-7.152-16.001-16.001-16.001zM240.001 344.001c-35.297 0-64.001 28.703-64.001 64 0 18.256 18.432 128.063 64.001 128.063 45.566 0 64-109.808 64-128.063 0-35.297-28.705-64-64-64zM240.001 503.712c-12.64-7.76-32.002-69.327-32.002-95.711 0-17.648 14.352-32 32.002-32 17.648 0 31.998 14.352 31.998 32 0 26.384-19.36 87.951-31.998 95.711zM240.001 280.048c-8.849 0-16.001 7.152-16.001 16.001v111.952c0 8.847 7.152 15.999 16.001 15.999 8.847 0 15.999-7.152 15.999-15.999v-111.952c0-8.849-7.152-16.001-15.999-16.001z" />
<glyph unicode="&#xe90b;" glyph-name="12" d="M514.689 960c-282.753 0-512.001-229.247-512.001-512s229.248-512 512.001-512c282.751 0 512 229.247 512 512s-229.249 512-512 512zM751.872 589.631l-245.248-374.847c-0.063-0.063-0.193-0.127-0.193-0.193-1.28-1.919-1.982-4.096-3.584-5.888-2.238-2.431-5.12-3.711-7.68-5.566-0.639-0.449-1.28-0.961-1.982-1.409-3.969-2.497-8.065-4.159-12.544-5.247-1.473-0.385-2.816-0.768-4.352-1.024-3.65-0.514-7.105-0.514-10.752-0.129-2.56 0.193-4.993 0.512-7.49 1.153-2.56 0.702-4.927 1.792-7.358 2.943-2.048 0.961-4.225 1.217-6.144 2.433-1.409 0.895-2.177 2.304-3.394 3.391-0.512 0.449-1.151 0.575-1.663 1.024l-142.785 132.033c-18.176 16.83-19.263 45.183-2.497 63.295 16.769 18.11 45.122 19.263 63.298 2.497l103.358-95.617 216.001 330.177c13.568 20.673 41.279 26.495 62.015 12.993 20.736-13.568 26.561-41.345 12.993-62.018z" />
<glyph unicode="&#xe90c;" glyph-name="13" d="M991.398 758.385c0 6.144-2.441 12.035-6.785 16.382-87.022 87.022-196.962 142.769-316.203 161.695-0.641 0.157-1.288 0.306-1.95 0.41-0.614 0.097-1.221 0.146-1.831 0.195-28.817 4.379-58.163 6.631-87.857 6.631-29.778 0-59.206-2.268-88.101-6.67-0.883-0.039-1.774-0.113-2.666-0.255-0.913-0.146-1.8-0.355-2.671-0.6-58.886-9.538-115.479-28.056-168.143-54.909-0.26-0.12-0.522-0.218-0.78-0.348-0.346-0.176-0.666-0.385-0.999-0.574-51.62-26.55-99.426-61.102-141.873-103.028-1.070-0.755-2.101-1.589-3.061-2.546-0.973-0.971-1.819-2.020-2.581-3.107-41.894-42.515-76.408-90.383-102.903-142.066-0.167-0.295-0.348-0.573-0.503-0.877-0.114-0.223-0.197-0.453-0.301-0.676-26.821-52.724-45.292-109.375-54.77-168.321-0.243-0.866-0.452-1.749-0.595-2.658-0.141-0.887-0.215-1.769-0.255-2.644-4.339-28.701-6.57-57.922-6.57-87.491 0-29.895 2.287-59.439 6.726-88.445 0.049-0.623 0.102-1.245 0.202-1.874 0.116-0.725 0.264-1.436 0.443-2.134 19.051-118.925 74.743-228.565 161.565-315.388 4.524-4.524 10.453-6.787 16.382-6.787s11.86 2.263 16.382 6.787l782.917 782.914c4.344 4.348 6.783 10.238 6.783 16.385zM576.774 399.692l-39.277 39.274c-9.046 9.046-23.716 9.046-32.764 0-9.046-9.046-9.046-23.716 0-32.764l39.277-39.274-358.342-358.343c-27.655 30.153-51.158 62.769-70.563 97.087l27.731 14.133c11.401 5.81 15.932 19.759 10.124 31.16-5.81 11.403-19.764 15.929-31.16 10.123l-27.725-14.127c-16.715 36.788-28.989 75.108-36.878 114.151l30.43 4.821c12.638 2.001 21.258 13.867 19.259 26.505-2.004 12.636-13.864 21.268-26.506 19.259l-30.386-4.813c-4.499 39.825-4.529 80.065-0.046 119.89l30.329-4.803c1.228-0.195 2.449-0.287 3.653-0.287 11.197 0 21.045 8.135 22.855 19.546 2.002 12.638-6.621 24.504-19.259 26.505l-30.375 4.813c7.87 39.029 20.153 77.335 36.846 114.115l27.514-14.019c3.368-1.716 6.959-2.529 10.499-2.529 8.435 0 16.569 4.622 20.661 12.655 5.808 11.399 1.274 25.352-10.127 31.158l-27.581 14.051c19.377 34.308 42.892 66.884 70.51 97.028l21.811-21.807c4.524-4.522 10.453-6.785 16.382-6.785 5.927 0 11.858 2.263 16.38 6.785 9.048 9.046 9.048 23.716 0 32.766l-21.828 21.828c29.86 27.449 62.335 51.135 96.866 70.781l14.119-27.713c4.094-8.032 12.227-12.654 20.662-12.654 3.537 0 7.129 0.813 10.496 2.53 11.401 5.808 15.935 19.76 10.127 31.16l-14.143 27.761c36.397 16.641 74.635 29.101 114.131 37.091l4.86-30.681c1.808-11.41 11.657-19.546 22.856-19.546 1.204 0 2.425 0.093 3.654 0.287 12.638 2.002 21.258 13.868 19.259 26.506l-4.85 30.611c19.954 2.252 40.149 3.431 60.525 3.431 20.011 0 39.848-1.124 59.449-3.297l-4.852-30.646c-2.003-12.638 6.621-24.504 19.257-26.506 1.229-0.195 2.449-0.287 3.654-0.287 11.198 0 21.045 8.136 22.856 19.546l4.874 30.782c39.528-7.916 77.812-20.281 114.252-36.855l-14.219-27.907c-5.808-11.401-1.276-25.352 10.125-31.16 3.369-1.717 6.961-2.53 10.498-2.53 8.436 0 16.57 4.622 20.66 12.654l14.227 27.926c34.779-19.697 67.508-43.446 97.563-71.043l-358.351-358.349zM731.025 756.87c-49.205 19.389-101.106 29.221-154.253 29.221-112.134 0-217.44-43.554-296.526-122.642-118.114-118.112-154.783-295.053-93.42-450.777 2.864-7.266 9.193-12.599 16.838-14.191 1.568-0.326 3.147-0.483 4.717-0.483 6.081 0 11.993 2.394 16.382 6.785l514.146 514.15c5.523 5.523 7.891 13.455 6.302 21.098s-6.922 13.978-14.186 16.838zM218.321 263.868c-37.184 129.651-1.81 270.318 94.691 366.819 70.332 70.332 164.004 109.068 263.762 109.068 35.146 0 69.675-4.827 103.053-14.383l-461.507-461.505zM1000.833-1.364h-334.242c-4.889 67.449-31.074 130.671-75.311 181.819l425.935 425.933c9.046 9.048 9.046 23.718 0 32.766-9.048 9.044-23.718 9.044-32.766 0l-441.553-441.555c-0.057-0.055-0.121-0.104-0.178-0.16-0.055-0.055-0.104-0.121-0.16-0.176l-205.412-205.412c-6.625-6.625-8.606-16.589-5.020-25.248 3.586-8.655 12.034-14.301 21.404-14.301h647.303c12.796 0 23.167 10.375 23.167 23.169 0 12.792-10.371 23.165-23.167 23.165zM558.402 147.577c35.621-42.258 57.002-93.874 61.694-148.941h-210.635l148.941 148.941z" />
<glyph unicode="&#xe90d;" glyph-name="14" d="M1000.833 471.167h-128.152c-11.5 180.881-156.633 326.015-337.514 337.515v128.151c0 12.795-10.371 23.167-23.167 23.167s-23.167-10.372-23.167-23.167v-128.151c-180.881-11.5-326.015-156.633-337.515-337.515h-128.151c-12.795 0-23.167-10.371-23.167-23.167s10.372-23.167 23.167-23.167h128.151c11.5-180.881 156.633-326.015 337.515-337.514v-128.152c0-12.796 10.371-23.167 23.167-23.167s23.167 10.371 23.167 23.167v128.152c180.881 11.5 326.015 156.633 337.514 337.514h128.152c12.796 0 23.167 10.371 23.167 23.167s-10.371 23.167-23.167 23.167zM826.257 471.167h-58.886c-11.061 122.946-109.259 221.141-232.202 232.204v58.886c155.322-11.343 279.745-135.765 291.088-291.090zM488.833 471.167h-185.645c10.732 97.376 88.267 174.911 185.645 185.643v-185.643zM488.833 424.833v-185.643c-97.376 10.732-174.914 88.271-185.645 185.643h185.645zM535.167 424.833h185.643c-10.732-97.376-88.267-174.911-185.643-185.643v185.643zM535.167 471.167v185.643c97.376-10.732 174.911-88.271 185.643-185.643h-185.643zM488.833 762.257v-58.886c-122.946-11.061-221.143-109.259-232.204-232.204h-58.886c11.343 155.324 135.765 279.747 291.090 291.090zM197.743 424.833h58.886c11.061-122.946 109.259-221.141 232.204-232.204v-58.886c-155.324 11.344-279.747 135.766-291.090 291.090zM535.167 133.743v58.886c122.946 11.061 221.141 109.259 232.202 232.204h58.886c-11.342-155.324-135.764-279.747-291.088-291.090z" />
<glyph unicode="&#xe90e;" glyph-name="15" d="M879.999-43.999v120.001c0 11.047-8.954 19.999-19.999 19.999-11.047 0-20.001-8.952-20.001-19.999v-100.002h-100c-11.047 0-20.001-8.952-20.001-19.999s8.954-20.001 20.001-20.001h120.001c11.045 0 19.999 8.954 19.999 20.001zM459.999 28c0-11.047-8.952-20.001-19.999-20.001s-20.001 8.954-20.001 20.001c0 11.047 8.954 20.001 20.001 20.001s19.999-8.954 19.999-20.001zM346.249 18.055c1.438-0.313 2.867-0.469 4.282-0.469 9.196 0 17.484 6.39 19.515 15.751 2.351 10.795-4.493 21.453-15.282 23.796-182.39 39.735-314.765 204.118-314.765 390.867 0 220.561 179.437 400 400.001 400 178.1 0 335.983-120.546 384.616-290h-0.618c-4.936 0-9.71-1.829-13.373-5.132l-55.368-49.822c-26.085 150.166-157.305 264.954-315.257 264.954-176.454 0-320.001-143.554-320.001-320s143.547-320 320.001-320c157.952 0 289.186 114.805 315.24 264.968l55.376-49.836c3.672-3.303 8.438-5.132 13.382-5.132h0.618c-40.243-140.554-155.345-249.475-299.383-280.859-10.797-2.351-17.633-13.009-15.288-23.804 2.038-9.361 10.32-15.743 19.522-15.743 1.415 0 2.845 0.147 4.282 0.461 162.187 35.336 291.031 160.031 332.335 319.945h137.914c7.375 0 14.148 4.063 17.633 10.564 3.475 6.498 3.101 14.389-0.993 20.531l-52.601 78.905 52.601 78.905c4.094 6.134 4.477 14.033 0.993 20.531-3.486 6.5-10.258 10.564-17.633 10.564h-137.937c-49.891 192.647-224.641 330-426.062 330-242.618 0-440.001-197.383-440.001-440 0-209.897 148.148-386.796 346.249-429.945zM440.001 167.999c-154.391 0-280.001 125.61-280.001 280.001s125.61 280.001 280.001 280.001c146.733 0 267.569-112.376 279.093-257.516l-2.767-2.484h-77.382c-10.070 100.897-95.453 179.96-198.945 179.96-110.258 0-199.963-89.702-199.963-199.961s89.704-199.961 199.963-199.961c103.5 0 188.875 79.055 198.945 179.96h77.375l2.757-2.476c-11.5-145.148-132.319-257.524-279.077-257.524zM517.468 468.001c-8.907 34.468-40.258 59.998-77.468 59.998-44.11 0-80.001-35.889-80.001-79.999s35.891-79.999 80.001-79.999c37.21 0 68.561 25.553 77.468 60.023h81.172c-9.875-78.797-77.226-139.985-158.64-139.985-88.203 0-159.961 71.758-159.961 159.961s71.758 159.961 159.961 159.961c81.414 0 148.765-61.172 158.64-139.96h-81.172zM480 448c0-22.055-17.947-39.999-39.999-39.999-22.055 0-40.002 17.945-40.002 39.999s17.947 39.999 40.002 39.999c22.053 0 39.999-17.945 39.999-39.999zM927.359 436.906l39.272-58.907h-134.961l-73.748 66.376c-0.774 1.671-1.765 3.219-2.953 4.602l76.702 69.024h134.961l-39.272-58.907c-4.477-6.719-4.477-15.469 0-22.188zM20 800c11.047 0 20 8.953 20 20v100h100c11.047 0 20 8.953 20 20s-8.953 20-20 20h-120c-11.047 0-20-8.953-20-20v-120c0-11.047 8.953-20 20-20zM860 800c11.045 0 19.999 8.953 19.999 20v120c0 11.047-8.954 20-19.999 20h-120.001c-11.047 0-20.001-8.953-20.001-20s8.954-20 20.001-20h100v-100c0-11.047 8.954-20 20.001-20zM20-64h120c11.047 0 20 8.954 20 20.001s-8.953 19.999-20 19.999h-100v100.002c0 11.047-8.953 19.999-20 19.999s-20-8.952-20-19.999v-120.001c0-11.047 8.953-20.001 20-20.001z" />
<glyph unicode="&#xe90f;" glyph-name="16" d="M396.163 181.574h-233.991c-12.795 0-23.167-10.371-23.167-23.167 0-12.794 10.372-23.167 23.167-23.167h233.991c12.796 0 23.167 10.373 23.167 23.167 0 12.796-10.371 23.167-23.167 23.167zM745.99 181.574h-233.99c-12.796 0-23.167-10.371-23.167-23.167 0-12.794 10.371-23.167 23.167-23.167h233.99c12.794 0 23.169 10.373 23.169 23.167 0 12.796-10.375 23.167-23.169 23.167zM745.99 760.76h-583.818c-12.795 0-23.167-10.372-23.167-23.167s10.372-23.167 23.167-23.167h583.818c12.794 0 23.169 10.372 23.169 23.167s-10.375 23.167-23.169 23.167zM745.99 644.923h-233.99c-12.796 0-23.167-10.373-23.167-23.167 0-12.796 10.371-23.169 23.167-23.169h233.99c12.794 0 23.169 10.373 23.169 23.169 0 12.794-10.375 23.167-23.169 23.167zM745.99 529.086h-233.99c-12.796 0-23.167-10.373-23.167-23.167 0-12.796 10.371-23.169 23.167-23.169h233.99c12.794 0 23.169 10.373 23.169 23.169 0 12.794-10.375 23.167-23.169 23.167zM745.99 413.25h-233.99c-12.796 0-23.167-10.373-23.167-23.169 0-12.794 10.371-23.167 23.167-23.167h233.99c12.794 0 23.169 10.373 23.169 23.167 0 12.796-10.375 23.169-23.169 23.169zM745.99 297.413h-233.99c-12.796 0-23.167-10.373-23.167-23.169 0-12.794 10.371-23.167 23.167-23.167h233.99c12.794 0 23.169 10.373 23.169 23.167 0 12.796-10.375 23.169-23.169 23.169zM396.163 297.413h-233.991c-12.795 0-23.167-10.373-23.167-23.169 0-12.794 10.372-23.167 23.167-23.167h233.991c12.796 0 23.167 10.373 23.167 23.167 0 12.796-10.371 23.169-23.167 23.169zM396.163 644.923h-233.991c-12.795 0-23.167-10.373-23.167-23.167v-233.992c0-12.796 10.372-23.167 23.167-23.167h233.991c12.796 0 23.167 10.371 23.167 23.167v233.992c0 12.794-10.371 23.167-23.167 23.167zM372.996 410.931h-187.657v187.656h187.657v-187.656zM977.666 783.928h-69.503v69.502c0 25.549-20.785 46.335-46.336 46.335h-815.492c-25.549 0-46.335-20.786-46.335-46.335v-741.357c0-63.873 51.965-115.837 115.837-115.837h792.326c63.873 0 115.837 51.964 115.837 115.837v625.52c0 25.549-20.785 46.335-46.334 46.335zM977.666 112.073c0-38.324-31.179-69.503-69.503-69.503h-792.326c-38.324 0-69.502 31.179-69.502 69.503v741.357h815.492v-706.607c0-31.937 25.983-57.917 57.919-57.917 12.794 0 23.167 10.371 23.167 23.167s-10.373 23.167-23.167 23.167c-6.388 0-11.583 5.196-11.583 11.583v590.77h69.503v-625.52z" />
<glyph unicode="&#xe910;" glyph-name="17" d="M1017.491 467.917c-9.148 12.513-227.113 306.413-505.496 306.413s-496.36-293.899-505.498-306.4c-8.664-11.872-8.664-27.974 0-39.846 9.138-12.513 227.115-306.414 505.498-306.414s496.347 293.9 505.496 306.403c8.677 11.87 8.677 27.984 0 39.844zM511.996 189.186c-205.060 0-382.662 195.066-435.236 258.836 52.506 63.826 229.737 258.791 435.236 258.791 205.048 0 382.638-195.033 435.235-258.836-52.507-63.824-229.736-258.791-435.235-258.791zM511.996 650.549c-111.686 0-202.551-90.866-202.551-202.549 0-111.686 90.866-202.551 202.551-202.551 111.684 0 202.549 90.866 202.549 202.551s-90.866 202.549-202.549 202.549zM511.996 312.967c-74.461 0-135.033 60.574-135.033 135.033 0 74.457 60.574 135.031 135.033 135.031 74.457 0 135.031-60.574 135.031-135.031 0-74.459-60.572-135.033-135.031-135.033z" />
<glyph unicode="&#xe911;" glyph-name="18" d="M512.731 949.867c-276.793 0-501.961-225.168-501.961-501.961 0-276.791 225.168-501.961 501.961-501.961 276.791 0 501.961 225.17 501.961 501.961 0 276.793-225.17 501.961-501.961 501.961zM732.339 406.078h-177.78v-177.78c0-23.092-18.735-41.827-41.827-41.827-23.094 0-41.827 18.735-41.827 41.827v177.78h-177.78c-23.094 0-41.827 18.735-41.827 41.827s18.733 41.827 41.827 41.827h177.78v177.78c0 23.092 18.733 41.827 41.827 41.827 23.092 0 41.827-18.735 41.827-41.827v-177.78h177.78c23.092 0 41.827-18.735 41.827-41.827s-18.735-41.827-41.827-41.827z" />
<glyph unicode="&#xe912;" glyph-name="19" d="M613.123 849.475l-70.275-70.274 281.098-281.098h-813.177v-100.392h813.177l-281.098-281.098 70.275-70.275 401.569 401.569-401.569 401.569z" />
<glyph unicode="&#xe913;" glyph-name="20" d="M412.339 849.475l70.275-70.274-281.098-281.098h813.176v-100.392h-813.176l281.098-281.098-70.275-70.275-401.569 401.569 401.569 401.569z" />
<glyph unicode="&#xe914;" glyph-name="21" d="M470.889-11.569c-253.693 0-460.12 206.42-460.12 460.111s206.427 460.118 460.12 460.118c88.217 0 174.044-25.137 248.208-72.738 14.559-9.375 18.826-28.783 9.451-43.381-9.407-14.598-28.776-18.818-43.373-9.451-64 41.122-138.116 62.827-214.285 62.827-219.104 0-397.377-178.273-397.377-397.375 0-219.096 178.273-397.368 397.377-397.368 219.094 0 397.366 178.272 397.366 397.368 0 13.097-0.626 26.064-1.837 38.816-1.671 17.279 10.961 32.589 28.192 34.26 17.318 1.592 32.583-10.961 34.26-28.194 1.418-14.766 2.128-29.74 2.128-44.881 0-253.691-206.418-460.111-460.109-460.111zM523.17 343.972c-8.027 0-16.061 3.056-22.167 9.2l-188.229 188.229c-12.254 12.262-12.254 32.13 0 44.383 12.256 12.254 32.123 12.254 44.377 0l166.065-166.065 437.899 437.909c12.262 12.254 32.13 12.254 44.385 0s12.254-32.122 0-44.377l-460.119-460.118c-6.15-6.106-14.177-9.162-22.211-9.162z" />
<glyph unicode="&#xe915;" glyph-name="22" d="M1009.13 941.717c-7.61 7.557-18.854 10.121-28.983 6.587l-948.151-334.643c-11.173-3.931-18.638-14.493-18.617-26.329 0.010-11.836 7.486-22.375 18.658-26.297l412.473-144.506 189.125 189.145c10.939 10.611 28.361 10.479 39.135-0.295s10.907-28.196 0.295-39.135l-189.115-189.145 144.506-412.505c3.911-11.152 14.43-18.617 26.247-18.647h0.052c11.826-0.010 22.365 7.445 26.307 18.597l334.643 948.16c3.544 10.131 0.99 21.395-6.576 29.014z" />
<glyph unicode="&#xe916;" glyph-name="23" d="M452.875 949.867c-243.772 0-442.107-198.335-442.107-442.105 0-243.784 198.334-442.107 442.107-442.107 243.784 0 442.105 198.323 442.105 442.107 0 243.77-198.321 442.105-442.105 442.105zM452.875 147.273c-198.77 0-360.487 161.716-360.487 360.486s161.717 360.488 360.487 360.488c198.77 0 360.486-161.715 360.486-360.486s-161.716-360.488-360.486-360.488zM1002.733 15.607l-233.976 233.978c-15.944 15.942-41.763 15.942-57.707 0-15.942-15.93-15.942-41.777 0-57.707l233.978-233.976c7.969-7.971 18.406-11.957 28.853-11.957 10.433 0 20.88 3.986 28.853 11.957 15.942 15.93 15.942 41.777 0 57.705z" />
<glyph unicode="&#xe917;" glyph-name="24" horiz-adv-x="863" d="M412.353 67.443v-30.646c0-12.545 10.172-22.713 22.713-22.713 12.543 0 22.715 10.168 22.715 22.713v30.646c0 12.543-10.172 22.713-22.715 22.713-12.541 0-22.713-10.17-22.713-22.713zM786.462 834.731h-13.053v35.421c0 43.954-35.76 79.714-79.715 79.714h-568.721c-43.954 0-79.714-35.76-79.714-79.714v-35.423h-11.774c-12.542 0-22.713-10.169-22.713-22.713s10.171-22.713 22.713-22.713h11.774v-35.422c0-43.954 35.76-79.713 79.714-79.713h568.723c43.956 0 79.715 35.76 79.715 79.713v35.424h13.053c9.983 0 22.173-10.562 22.173-22.888v-111.718c0-14.129-12.208-28.668-26.128-31.11l-306.451-53.776c-35.722-6.268-63.703-39.587-63.703-75.852v-73.945h-64.811c-6.674 0-13.013-2.935-17.326-8.027-4.315-5.090-6.176-11.822-5.082-18.406l19.35-116.503v-265.834c0-36.007 29.294-65.301 65.301-65.301h50.566c36.009 0 65.301 29.294 65.301 65.301v265.836l19.35 116.503c1.092 6.584-0.765 13.316-5.082 18.406-4.313 5.092-10.65 8.027-17.326 8.027h-64.809v73.945c0 14.129 12.208 28.668 26.126 31.11l306.453 53.774c35.722 6.268 63.703 39.587 63.703 75.852v111.718c-0.008 36.391-31.597 68.314-67.606 68.314zM727.982 753.881c0-18.906-15.378-34.286-34.288-34.286h-568.721c-18.906 0-34.288 15.38-34.288 34.286v116.272c0 18.906 15.379 34.288 34.288 34.288h568.723c18.908 0 34.288-15.381 34.288-34.288v-116.272h-0.002zM480.529 282.674c-0.205-1.231-0.307-2.474-0.307-3.721v-267.708c0-10.959-8.915-19.874-19.874-19.874h-50.566c-10.961 0-19.876 8.915-19.876 19.874v244.995h22.177c12.541 0 22.713 10.168 22.713 22.713s-10.172 22.713-22.713 22.713h-25.634l-12.111 72.923h121.456l-15.266-91.915z" />
<glyph unicode="&#xe918;" glyph-name="25" d="M935.472 900.766h-845.485c-43.682 0-79.219-35.537-79.219-79.219v-558.714c0-43.683 35.537-79.219 79.219-79.219h285.144v-143.141h-107.263c-12.543 0-22.713-10.17-22.713-22.713 0-12.545 10.17-22.715 22.713-22.715h489.721c12.543 0 22.715 10.17 22.715 22.715 0 12.543-10.172 22.713-22.715 22.713h-107.263v143.141h285.144c43.681 0 79.219 35.537 79.219 79.219v558.714c0.002 43.682-35.535 79.219-79.217 79.219zM89.988 855.34h845.485c18.635 0 33.794-15.159 33.794-33.793v-494.309h-913.071v494.309c0 18.634 15.159 33.793 33.793 33.793zM604.903 40.472h-184.344v143.141h184.344v-143.141zM935.472 229.039h-845.485c-18.634 0-33.793 15.159-33.793 33.794v18.978h913.071v-18.978c0-18.635-15.159-33.794-33.794-33.794zM360.727 463.396h304.004c12.543 0 22.713 10.168 22.713 22.713v210.39c0 12.545-10.17 22.713-22.713 22.713h-304.004c-12.541 0-22.713-10.168-22.713-22.713v-210.39c0-12.543 10.172-22.713 22.713-22.713zM383.442 673.786h258.576v-164.964h-258.576v164.964zM732.034 673.786h15.904c12.541 0 22.713 10.168 22.713 22.713s-10.172 22.713-22.713 22.713h-15.904c-12.543 0-22.713-10.168-22.713-22.713s10.168-22.713 22.713-22.713zM664.731 741.051c12.543 0 22.715 10.169 22.715 22.713v15.902c0 12.544-10.172 22.713-22.715 22.713-12.541 0-22.713-10.169-22.713-22.713v-15.902c0-12.545 10.17-22.713 22.713-22.713zM732.034 463.364h15.904c12.541 0 22.713 10.17 22.713 22.715 0 12.543-10.172 22.713-22.713 22.713h-15.904c-12.543 0-22.713-10.17-22.713-22.713 0-12.545 10.168-22.715 22.713-22.715zM664.731 441.523c-12.541 0-22.713-10.168-22.713-22.713v-15.902c0-12.543 10.172-22.713 22.713-22.713 12.543 0 22.715 10.17 22.715 22.713v15.902c0 12.545-10.172 22.713-22.715 22.713zM277.524 673.786h15.902c12.543 0 22.715 10.168 22.715 22.713s-10.172 22.713-22.715 22.713h-15.902c-12.543 0-22.715-10.168-22.715-22.713s10.172-22.713 22.715-22.713zM360.727 741.051c12.543 0 22.715 10.169 22.715 22.713v15.902c0 12.544-10.172 22.713-22.715 22.713-12.541 0-22.713-10.169-22.713-22.713v-15.902c0-12.545 10.172-22.713 22.713-22.713zM277.524 463.364h15.902c12.543 0 22.715 10.17 22.715 22.715 0 12.543-10.172 22.713-22.715 22.713h-15.902c-12.543 0-22.715-10.17-22.715-22.713 0-12.545 10.172-22.715 22.715-22.715zM360.727 380.195c12.543 0 22.715 10.17 22.715 22.713v15.902c0 12.545-10.172 22.713-22.715 22.713-12.541 0-22.713-10.168-22.713-22.713v-15.902c0-12.543 10.172-22.713 22.713-22.713z" />
<glyph unicode="&#xe919;" glyph-name="26" d="M774.638 549.481c0 51.78-15.355 102.4-44.123 145.454-28.77 43.055-69.659 76.612-117.498 96.428s-100.482 25.001-151.268 14.899c-50.786-10.102-97.437-35.037-134.051-71.652-36.616-36.614-61.55-83.265-71.652-134.051s-4.917-103.429 14.899-151.268c19.817-47.839 53.372-88.728 96.428-117.498 43.054-28.768 93.673-44.123 145.454-44.123 69.414 0.077 135.962 27.684 185.046 76.766 49.081 49.084 76.691 115.632 76.766 185.046zM512.826 328.306c-43.745 0-86.505 12.971-122.878 37.274s-64.721 58.846-81.463 99.262c-16.739 40.414-21.119 84.885-12.586 127.788 8.536 42.903 29.6 82.314 60.532 113.245s70.342 51.998 113.245 60.532c42.903 8.534 87.375 4.154 127.791-12.586 40.414-16.74 74.957-45.090 99.26-81.462 24.303-36.37 37.276-79.132 37.276-122.878-0.066-58.639-23.388-114.859-64.853-156.324s-97.685-64.787-156.324-64.851zM620.346 645.136l-148.155-148.196-66.885 66.924c-3.814 3.816-8.988 5.96-14.384 5.96s-10.57-2.144-14.384-5.96c-3.816-3.814-5.96-8.988-5.96-14.384s2.144-10.57 5.96-14.384l81.269-81.271c1.886-1.891 4.13-3.393 6.597-4.417 2.469-1.024 5.115-1.552 7.787-1.552 2.674 0 5.32 0.528 7.787 1.552 2.469 1.024 4.71 2.526 6.599 4.417l162.538 162.541c3.816 3.814 5.96 8.988 5.96 14.384s-2.144 10.57-5.96 14.386c-3.814 3.814-8.988 5.957-14.384 5.957s-10.57-2.144-14.386-5.957zM960.949 92.581l-116.704 197.73c3.864 3.193 7.414 6.742 10.606 10.606 10.902 14.532 16.684 32.267 16.443 50.433-0.243 18.166-6.497 35.74-17.783 49.976-4.283 5.559-7.143 12.076-8.338 18.99s-0.685 14.015 1.486 20.687c2.169 6.672 5.932 12.716 10.964 17.606 5.031 4.888 11.18 8.479 17.911 10.456 17.342 5.136 32.559 15.742 43.381 30.235 10.823 14.491 16.668 32.094 16.668 50.181s-5.846 35.69-16.668 50.183c-10.823 14.491-26.039 25.097-43.381 30.233-6.731 1.977-12.88 5.568-17.911 10.456-5.031 4.89-8.795 10.934-10.964 17.606-2.171 6.672-2.681 13.772-1.486 20.687 1.195 6.913 4.055 13.433 8.338 18.99 11 14.345 17.069 31.862 17.301 49.938 0.234 18.076-5.384 35.743-16.013 50.366s-25.7 25.418-42.965 30.775c-17.267 5.357-35.801 4.99-52.841-1.047-6.608-2.364-13.692-3.080-20.639-2.085s-13.546 3.671-19.224 7.796c-5.678 4.124-10.263 9.572-13.358 15.871s-4.606 13.258-4.401 20.272c0.51 18.095-4.854 35.868-15.285 50.662-10.433 14.794-25.372 25.814-42.587 31.412s-35.779 5.473-52.916-0.355c-17.139-5.829-31.928-17.048-42.161-31.981-4.135-5.541-9.505-10.040-15.685-13.139-6.178-3.099-12.998-4.713-19.911-4.713s-13.731 1.614-19.911 4.713c-6.178 3.099-11.551 7.598-15.685 13.139-10.229 14.929-25.017 26.147-42.15 31.976s-35.694 5.957-52.907 0.365c-17.212-5.593-32.151-16.605-42.587-31.392-10.433-14.787-15.804-32.554-15.305-50.645 0.205-7.015-1.304-13.974-4.399-20.272s-7.68-11.747-13.358-15.871c-5.68-4.124-12.279-6.8-19.224-7.795-6.947-0.995-14.033-0.28-20.64 2.085-17.040 6.038-35.575 6.405-52.84 1.048s-32.337-16.153-42.966-30.776c-10.629-14.623-16.246-32.29-16.014-50.366s6.302-35.593 17.303-49.938c4.282-5.555 7.145-12.072 8.341-18.983s0.69-14.011-1.475-20.683c-2.165-6.672-5.924-12.714-10.951-17.606s-11.17-8.486-17.899-10.468c-17.365-5.113-32.608-15.708-43.45-30.203s-16.702-32.11-16.702-50.212c0-18.102 5.859-35.717 16.702-50.212s26.086-25.093 43.45-30.203c6.732-1.977 12.88-5.568 17.911-10.456 5.031-4.89 8.795-10.934 10.965-17.606s2.679-13.772 1.485-20.687c-1.194-6.913-4.055-13.433-8.337-18.99-11.284-14.229-17.536-31.796-17.779-49.955s5.538-35.888 16.438-50.413c3.192-3.875 6.743-7.441 10.606-10.647l-116.744-197.771c-2.042-3.461-3.010-7.452-2.783-11.464 0.227-4.014 1.639-7.869 4.058-11.080s5.735-5.632 9.53-6.956c3.795-1.324 7.898-1.495 11.789-0.487l137.712 35.474 35.474-137.794c1.007-3.893 3.147-7.4 6.149-10.076s6.732-4.403 10.714-4.958c0.928-0.127 1.866-0.196 2.803-0.203 3.536-0.002 7.013 0.919 10.085 2.672s5.632 4.278 7.43 7.325l110.769 187.651v0.325h0.528c13.499 0.016 26.781 3.363 38.675 9.742 11.894 6.381 22.030 15.597 29.512 26.829 4.135 5.541 9.505 10.042 15.685 13.141 6.178 3.099 12.996 4.713 19.911 4.713 6.913 0 13.731-1.613 19.911-4.713 6.178-3.099 11.548-7.6 15.683-13.141 7.528-11.303 17.74-20.56 29.726-26.943 11.988-6.383 25.37-9.692 38.948-9.628v-0.366l111.177-187.529c1.798-3.047 4.358-5.573 7.43-7.325 3.072-1.754 6.547-2.674 10.085-2.672 0.951 0.007 1.9 0.075 2.844 0.203 3.928 0.594 7.596 2.328 10.549 4.986 2.956 2.658 5.065 6.124 6.069 9.967l35.474 137.712 137.753-35.474c3.889-0.997 7.985-0.819 11.774 0.512 3.787 1.329 7.095 3.75 9.507 6.959 2.414 3.209 3.821 7.059 4.048 11.066 0.225 4.007-0.74 7.992-2.776 11.453v0.080zM287.587 18.016l-28.444 109.716c-1.348 5.216-4.712 9.68-9.353 12.418-4.641 2.735-10.178 3.516-15.394 2.169l-109.714-28.444 91.51 155.511c16.595-4.631 34.221-3.978 50.428 1.868 6.609 2.364 13.692 3.081 20.64 2.084 6.947-0.994 13.544-3.67 19.224-7.794 5.678-4.126 10.263-9.573 13.358-15.872s4.603-13.257 4.399-20.273c-0.512-15.353 3.341-30.54 11.107-43.793 7.769-13.255 19.133-24.037 32.779-31.095l-80.539-136.495zM581.905 202.661c-7.696 11.214-18.009 20.384-30.044 26.722s-25.432 9.648-39.035 9.648c-13.601 0-26.997-3.311-39.033-9.648s-22.348-15.508-30.046-26.722c-5.277-7.719-12.914-13.517-21.768-16.525-8.854-3.006-18.443-3.061-27.329-0.15-8.886 2.908-16.589 8.622-21.95 16.282s-8.094 16.853-7.785 26.198c0.389 13.615-2.549 27.122-8.558 39.347s-14.912 22.797-25.932 30.804c-11.021 8.005-23.827 13.203-37.312 15.142-13.483 1.936-27.235 0.555-40.065-4.023-8.791-3.147-18.364-3.361-27.287-0.61s-16.713 8.319-22.205 15.872c-5.492 7.55-8.389 16.678-8.257 26.014s3.285 18.377 8.987 25.771c8.264 10.779 13.782 23.409 16.079 36.796s1.302 27.134-2.897 40.050c-4.199 12.918-11.477 24.622-21.207 34.099s-21.618 16.448-34.642 20.307c-8.934 2.651-16.772 8.119-22.346 15.59-5.574 7.468-8.585 16.539-8.585 25.857 0 9.321 3.011 18.389 8.585 25.859 5.574 7.468 13.412 12.937 22.346 15.588 13.064 3.839 24.995 10.802 34.76 20.291s17.069 21.215 21.28 34.163c4.211 12.948 5.201 26.729 2.885 40.145s-7.868 26.069-16.176 36.855c-5.702 7.393-8.855 16.436-8.987 25.772s2.765 18.463 8.257 26.014c5.492 7.551 13.282 13.119 22.205 15.871s18.496 2.538 27.287-0.609c12.829-4.559 26.576-5.924 40.052-3.978s26.274 7.145 37.29 15.147c11.014 8.002 19.916 18.567 25.93 30.781 6.017 12.214 8.968 25.709 8.597 39.32-0.234 9.305 2.542 18.436 7.914 26.035 5.375 7.599 13.062 13.259 21.914 16.136s18.396 2.819 27.211-0.167c8.816-2.986 16.43-8.74 21.711-16.404 7.698-11.214 18.011-20.385 30.046-26.721s25.432-9.648 39.033-9.648c13.603 0 26.999 3.311 39.035 9.648s22.348 15.508 30.044 26.721c5.277 7.719 12.916 13.518 21.768 16.525 8.854 3.007 18.443 3.060 27.329 0.152s16.589-8.622 21.952-16.282c5.361-7.66 8.092-16.853 7.782-26.198-0.373-13.615 2.578-27.116 8.597-39.334 6.017-12.218 14.921-22.786 25.944-30.79 11.021-8.003 23.825-13.201 37.305-15.143s27.232-0.57 40.063 3.997c8.79 3.147 18.364 3.361 27.286 0.609s16.714-8.32 22.205-15.871c5.491-7.551 8.388-16.678 8.258-26.014-0.132-9.336-3.286-18.378-8.988-25.771-8.306-10.788-13.86-23.438-16.175-36.855-2.317-13.417-1.327-27.197 2.883-40.145 4.212-12.948 11.517-24.674 21.281-34.163s21.695-16.455 34.759-20.291c8.934-2.651 16.773-8.119 22.346-15.59 5.573-7.468 8.586-16.539 8.586-25.857 0-9.321-3.013-18.391-8.586-25.859s-13.412-12.937-22.346-15.59c-13.064-3.837-24.995-10.802-34.759-20.289-9.764-9.489-17.069-21.215-21.281-34.165-4.21-12.948-5.2-26.726-2.883-40.143 2.314-13.419 7.869-26.069 16.175-36.855 5.703-7.393 8.856-16.436 8.988-25.773 0.13-9.334-2.767-18.464-8.258-26.014s-13.282-13.119-22.205-15.87c-8.922-2.751-18.496-2.54-27.286 0.608-12.832 4.567-26.583 5.939-40.063 3.998-13.48-1.943-26.285-7.141-37.305-15.144-11.023-8.003-19.927-18.571-25.944-30.788-6.019-12.22-8.97-25.721-8.597-39.335 0.259-9.318-2.505-18.473-7.878-26.092s-13.069-13.294-21.934-16.179c-8.863-2.885-18.425-2.824-27.254 0.173-8.827 2.997-16.448 8.77-21.725 16.457l-0.041 0.243zM791.095 142.482c-2.585 0.671-5.279 0.828-7.923 0.46-2.646-0.371-5.193-1.258-7.496-2.612-2.303-1.356-4.314-3.152-5.923-5.286-1.607-2.132-2.778-4.562-3.445-7.15l-28.444-109.714-80.375 136.331c13.644 7.059 25.011 17.84 32.777 31.095 7.769 13.253 11.619 28.44 11.107 43.793-0.205 7.016 1.306 13.974 4.401 20.273s7.68 11.746 13.358 15.872c5.678 4.123 12.277 6.799 19.224 7.794 6.947 0.997 14.031 0.28 20.639-2.084 16.218-5.796 33.833-6.433 50.429-1.827l91.63-155.268-109.957 28.324z" />
<glyph unicode="&#xe91a;" glyph-name="27" d="M992.899 492.936c19.761 19.259 26.736 47.522 18.213 73.796-8.543 26.275-30.796 45.030-58.137 49.009l-243.080 35.322c-10.352 1.506-19.299 7.999-23.921 17.388l-108.675 220.243c-12.204 24.746-36.968 40.125-64.57 40.125-27.58 0-52.346-15.379-64.548-40.125l-108.695-220.263c-4.624-9.389-13.591-15.882-23.944-17.39l-243.080-35.32c-27.319-3.959-49.593-22.735-58.137-49.009-8.523-26.275-1.548-54.539 18.213-73.796l175.877-171.434c7.499-7.319 10.937-17.852 9.168-28.144l-41.492-242.076c-3.679-21.309 1.91-42.034 15.7-58.378 21.429-25.469 58.841-33.23 88.752-17.508l217.389 114.302c9.087 4.765 20.526 4.724 29.592 0l217.409-114.302c10.573-5.57 21.851-8.383 33.491-8.383 21.249 0 41.392 9.447 55.242 25.891 13.81 16.344 19.378 37.109 15.699 58.378l-41.51 242.076c-1.771 10.312 1.669 20.825 9.166 28.144l175.877 171.454z" />
<glyph unicode="&#xe91b;" glyph-name="28" d="M995.738 838.421c0.778 8.042-5.108 15.192-13.151 15.97l-131.046 12.682c-8.040 0.778-15.19-5.11-15.969-13.151s5.108-15.191 13.151-15.97l116.484-11.273-11.273-116.484c-0.778-8.042 5.111-15.191 13.151-15.97 8.043-0.778 15.193 5.11 15.971 13.151l12.68 131.045zM38.557 44.603l951.921 783.935-18.599 22.585-951.921-783.933 18.599-22.587z" />
<glyph unicode="&#xe91c;" glyph-name="29" d="M85.936 533.835c0-230.522 394.926-577.889 411.734-592.565 3.97-3.464 9.061-5.373 14.329-5.373s10.36 1.909 14.329 5.373c16.809 14.676 411.735 362.043 411.735 592.565 0 112.997-44.89 221.369-124.793 301.271s-188.272 124.791-301.272 124.791c-112.999 0-221.37-44.889-301.273-124.791s-124.791-188.274-124.791-301.271zM512 916.324c101.407-0.115 198.628-40.45 270.334-112.156s112.041-168.926 112.156-270.333c0-187.682-311.353-482.067-382.49-546.868-71.137 64.804-382.489 359.187-382.489 546.868 0.115 101.407 40.45 198.628 112.155 270.333s168.927 112.041 270.334 112.156zM512 286.914c49.795 0 98.47 14.767 139.872 42.431s73.669 66.985 92.724 112.989 24.042 96.624 14.327 145.462c-9.715 48.836-33.694 93.696-68.902 128.906-35.21 35.209-80.070 59.187-128.906 68.901-48.838 9.714-99.459 4.729-145.462-14.326s-85.323-51.324-112.989-92.726c-27.663-41.4-42.429-90.077-42.43-139.87 0.076-66.75 26.626-130.743 73.825-177.943 47.198-47.198 111.191-73.748 177.941-73.824zM512 746.866c41.176-0.001 81.428-12.212 115.664-35.088 34.234-22.877 60.919-55.392 76.676-93.432 15.757-38.043 19.879-79.903 11.846-120.287s-27.862-77.48-56.978-106.594c-29.116-29.116-66.211-48.943-106.596-56.976s-82.245-3.909-120.287 11.848c-38.041 15.759-70.556 42.444-93.43 76.68-22.877 34.236-35.086 74.488-35.086 115.664 0.063 55.196 22.018 108.113 61.048 147.14 39.032 39.030 91.949 60.984 147.144 61.045z" />
<glyph unicode="&#xe91d;" glyph-name="30" horiz-adv-x="1004" d="M836.602 123.723h-669.282c-30.475 0.11-59.67 12.264-81.218 33.814-21.549 21.548-33.704 50.744-33.814 81.217v418.302c0.11 30.475 12.265 59.669 33.814 81.217 21.549 21.55 50.744 33.705 81.218 33.815h669.282c30.473-0.11 59.669-12.265 81.217-33.815 21.55-21.548 33.704-50.742 33.814-81.217v-418.302c-0.11-30.473-12.264-59.669-33.814-81.217-21.548-21.55-50.744-33.704-81.217-33.814zM167.32 709.343c-13.867 0-27.167-5.508-36.973-15.314s-15.315-23.106-15.315-36.972v-418.302c0-13.866 5.509-27.166 15.315-36.972s23.105-15.314 36.973-15.314h669.282c13.866 0 27.166 5.508 36.972 15.314s15.314 23.106 15.314 36.972v418.302c0 13.866-5.508 27.166-15.314 36.972s-23.106 15.314-36.972 15.314h-669.282zM501.961 391.435c-24.275 0-48.106 6.499-69.020 18.824l-365.177 217.098c-6.823 4.253-11.781 10.933-13.877 18.693-2.096 7.762-1.173 16.029 2.582 23.136 4.177 6.911 10.888 11.917 18.703 13.948s16.114 0.93 23.128-3.072l365.596-216.68c11.087-6.762 23.823-10.338 36.81-10.338s25.722 3.576 36.81 10.338l365.596 216.68c7.013 4.002 15.312 5.104 23.126 3.072s14.527-7.037 18.703-13.948c3.755-7.108 4.678-15.374 2.582-23.136-2.096-7.76-7.054-14.44-13.876-18.693l-362.667-217.098c-20.914-12.324-44.745-18.824-69.020-18.824z" />
<glyph unicode="&#xe91e;" glyph-name="31" horiz-adv-x="1004" d="M721.514-54.055c-32.405 0-64.538 5.73-95.959 17.145-138.421 50.284-266.907 132.182-371.567 236.843-104.663 104.661-186.562 233.147-236.844 371.569-16.158 44.484-20.927 90.403-14.168 136.487 6.331 43.169 23.052 85.074 48.357 121.19 25.417 36.275 59.301 66.446 97.99 87.251 41.257 22.185 86.289 33.436 133.847 33.436 14.792 0 27.576-10.335 30.676-24.797l49.24-229.792c2.231-10.407-0.968-21.233-8.491-28.758l-84.141-84.139c79.374-157.808 208.169-286.604 365.978-365.976l84.139 84.139c7.523 7.523 18.352 10.718 28.756 8.491l229.794-49.24c14.465-3.1 24.797-15.884 24.797-30.676 0-47.558-11.25-92.592-33.439-133.849-20.805-38.689-50.975-72.573-87.251-97.991-36.113-25.305-78.021-42.024-121.189-48.357-13.527-1.986-27.052-2.976-40.524-2.978zM258.104 885.752c-62.732-6.925-118.412-39.806-155.387-92.579-41.579-59.341-51.274-132.328-26.601-200.251 96.67-266.118 304.741-474.19 570.861-570.86 67.921-24.674 140.91-14.981 200.25 26.6 52.772 36.974 85.655 92.656 92.58 155.389l-186.936 40.056-87.871-87.871c-9.351-9.351-23.558-11.834-35.521-6.212-186.641 87.685-337.717 238.761-425.4 425.4-5.621 11.965-3.138 26.172 6.212 35.521l87.871 87.871-40.058 186.936zM972.547 416.555c-17.324 0-31.371 14.047-31.371 31.371 0 242.176-197.024 439.198-439.198 439.198-17.324 0-31.371 14.046-31.371 31.371s14.047 31.371 31.371 31.371c134.076 0 260.122-52.21 354.926-147.014s147.014-220.852 147.014-354.927c0-17.324-14.045-31.371-31.373-31.371zM847.063 416.555c-17.324 0-31.371 14.047-31.371 31.371 0 172.982-140.732 313.713-313.713 313.713-17.324 0-31.371 14.046-31.371 31.371s14.047 31.371 31.371 31.371c207.579 0 376.455-168.877 376.455-376.456 0-17.324-14.043-31.371-31.371-31.371zM721.579 416.555c-17.326 0-31.373 14.047-31.373 31.371 0 103.791-84.438 188.229-188.227 188.229-17.324 0-31.371 14.045-31.371 31.371s14.047 31.371 31.371 31.371c138.387 0 250.97-112.584 250.97-250.97 0-17.324-14.045-31.371-31.371-31.371z" />
<glyph unicode="&#xe91f;" glyph-name="32" d="M995.652 848.502c-40.571-24.061-85.557-41.531-133.425-51.002-38.33 40.891-92.916 66.36-153.324 66.36-116.017 0-210.086-94.068-210.086-210.022 0-16.445 1.855-32.508 5.439-47.866-174.572 8.767-329.367 92.404-432.97 219.492-18.11-30.972-28.413-67.064-28.413-105.587 0-72.886 37.115-137.199 93.428-174.825-34.428 1.151-66.808 10.621-95.156 26.364 0-0.895 0-1.729 0-2.623 0-101.747 72.439-186.665 168.492-205.99-17.598-4.801-36.156-7.361-55.354-7.361-13.566 0-26.685 1.346-39.547 3.777 26.749-83.446 104.307-144.173 196.199-145.902-71.862-56.314-162.475-89.909-260.895-89.909-16.958 0-33.66 1.024-50.106 2.943 92.98-59.576 203.367-94.388 322.009-94.388 386.384 0 597.684 320.088 597.684 597.686 0 9.087-0.193 18.174-0.639 27.197 41.146 29.499 76.79 66.487 104.946 108.594-37.691-16.702-78.133-28.029-120.625-33.084 43.387 25.981 76.663 67.192 92.342 116.146z" />
<glyph unicode="&#xe920;" glyph-name="33" d="M257.92 367.809c49.473 87.489-15.936 106.689-26.176 170.111-41.92 259.201 299.008 436.225 477.569 255.105 123.519-125.44 42.174-511.105-156.994-471.040-190.783 38.337 93.44 345.344-58.814 405.567-123.777 49.024-189.505-149.76-130.816-248.576-34.433-169.921-108.545-329.921-78.529-542.976 97.28 70.593 130.112 205.824 156.992 346.817 48.896-29.759 75.071-60.672 137.409-65.473 229.951-17.857 358.463 229.569 326.975 457.921-27.904 202.368-229.695 305.408-444.865 281.279-170.111-19.072-339.711-156.608-346.751-353.279-4.288-120.064 29.76-210.176 144-235.457z" />
<glyph unicode="&#xe921;" glyph-name="34" d="M68.8 679.9h197.867v-733.333h-197.867v733.333zM672.467 679.834c-72.467 0-108.599-34.534-139.134-57.933v57.999h-198.933v-733.333h198.933v461.666c0 0-7.266 91.934 102.933 91.934 66.4 0 97.067-37.801 97.067-91.934v-461.666h209.6v455.2c0 250.001-201.267 278.067-270.466 278.067zM66.667 846.567c0-13.132 2.587-26.136 7.612-38.268s12.391-23.156 21.677-32.442c9.286-9.286 20.31-16.652 32.442-21.677s25.136-7.612 38.268-7.612c13.132 0 26.136 2.587 38.268 7.612s23.156 12.391 32.442 21.677c9.286 9.286 16.652 20.31 21.677 32.442s7.612 25.136 7.612 38.268c0 13.132-2.587 26.136-7.612 38.268s-12.391 23.156-21.677 32.442c-9.286 9.286-20.31 16.652-32.442 21.677s-25.136 7.612-38.268 7.612c-13.132 0-26.136-2.587-38.268-7.612s-23.156-12.391-32.442-21.677c-9.286-9.286-16.652-20.31-21.677-32.442s-7.612-25.136-7.612-38.268z" />
<glyph unicode="&#xe922;" glyph-name="35" horiz-adv-x="522" d="M137.223-54.055h188.109l0.126 501.961 170.853 0.062 18.322 172.99h-189.301l0.251 86.588c0 45.112 3.074 69.27 67.827 69.27h119.593v173.051h-171.482c-166.212 0-204.487-85.898-204.487-227.011l0.188-101.898-126.18-0.064v-172.988h126.18v-501.961z" />
<glyph unicode="&#xe923;" glyph-name="36" d="M970.67-53.33h-326.403c-23.467 0-42.667 19.197-42.667 42.667v202.663c0 51.2-40.533 91.733-91.733 91.733s-91.733-40.533-91.733-91.733v-202.663c0-23.47-19.2-42.667-42.667-42.667h-322.133c-23.467 0-42.667 19.197-42.667 42.667v546.13c0 38.4 19.2 74.667 49.067 96l428.8 309.333c14.933 10.667 34.133 10.667 49.067 0l428.797-309.333c29.873-21.333 49.070-57.6 49.070-96v-548.267c-2.137-21.333-21.333-40.53-44.797-40.53zM686.933 29.867h243.2v505.6c0 10.667-6.397 21.333-14.937 27.733l-403.197 292.267-403.2-290.133c-8.533-6.4-14.933-17.067-14.933-27.733v-505.597h243.2v159.997c0 96 78.933 174.933 174.933 174.933s174.933-78.933 174.933-174.933v-162.133z" />
<glyph unicode="&#xe924;" glyph-name="37" horiz-adv-x="1280" d="M1046.641 466.285c74.721 171.6 28.641 280.72-8.883 333.28-56.96 79.76-160.717 123.52-251.837 106-158.397-30.24-225.92-137.6-225.92-359.28v-185.12l-92.64 92.64c-15.6 15.6-40.961 15.6-56.56 0s-15.6-40.959 0-56.56l160.961-160.881c8.079-8.079 18.719-11.761 29.281-11.52 10.557-0.241 21.197 3.441 29.276 11.52l161.761 161.679c15.601 15.601 15.601 40.96 0 56.561s-40.96 15.6-56.561 0l-95.519-95.442v187.122c0 230.72 79.442 265.12 160.799 280.72 52.239 9.6 127.841-12.32 171.761-73.92 53.76-75.12 43.443-186.56-29.041-313.599-7.68-13.522-6.881-30.239 2.084-42.88 8.955-12.641 24.719-19.041 39.675-16.323 9.682 1.684 38.564 6.083 56.801 6.083 87.122 0 157.921-71.762 157.921-160.082 0-88.238-71.762-160-160-160l-794.16-0.476c-92.96 13.757-165.84 101.837-165.84 200.479 0 98.237 73.76 182.799 171.68 196.799l34.4 4.96c19.68 2.8 34.32 19.68 34.32 39.6l-0.64 42.56c0.24 143.28 88.56 261.040 210.242 280 21.76 3.44 36.716 23.84 33.357 45.68-3.441 21.84-23.357 36.64-45.757 33.36-160.801-25.040-277.601-176-277.841-358.88 0-0.080 0.64-8.080 0.64-8.080-137.040-19.6-240.4-138.241-240.4-275.999 0-139.679 100.64-259.84 240-280.003h800c132.321 0 240 107.684 240 240 0 130.883-104.32 237.602-233.359 240.002z" />
<glyph unicode="&#xe925;" glyph-name="38" horiz-adv-x="922" d="M76.8-64h768c35.328 0 64 28.672 64 64v896c0 35.328-28.672 64-64 64h-768c-35.328 0-64-28.672-64-64v-896c0-35.328 28.672-64 64-64zM76.8 896h768v-896h-768v896zM684.8 768h-256c-17.664 0-32-14.336-32-32s14.336-32 32-32h256c17.664 0 32 14.336 32 32s-14.336 32-32 32zM684.8 576h-448c-17.664 0-32-14.336-32-32s14.336-32 32-32h448c17.664 0 32 14.336 32 32s-14.336 32-32 32zM684.8 384h-448c-17.664 0-32-14.336-32-32s14.336-32 32-32h448c17.664 0 32 14.336 32 32s-14.336 32-32 32zM684.8 192h-448c-17.664 0-32-14.336-32-32s14.336-32 32-32h448c17.664 0 32 14.336 32 32s-14.336 32-32 32z" />
<glyph unicode="&#xe926;" glyph-name="39" horiz-adv-x="1067" d="M1065.532 894.133c-2.931 34.333-30.665 63.2-65.532 63.2h-933.333c-34.867 0-62.6-28.867-65.533-63.2h-1.133v-870.133c0-36.8 29.867-66.667 66.667-66.667h933.333c36.8 0 66.667 29.867 66.667 66.667v870.133h-1.135zM400 557.333v200h266.667v-200h-266.667zM666.667 490.667v-205.534h-266.667v205.534h266.667zM333.333 757.333v-200h-266.667v200h266.667zM66.667 490.667h266.667v-205.534h-266.667v205.534zM66.667 24v200h266.667v-200h-266.667zM400 24v200h266.667v-200h-266.667zM1000 24h-266.667v200h266.667v-200zM1000 285.133h-266.667v205.534h266.667v-205.534zM1000 557.333h-266.667v200h266.667v-200z" />
<glyph unicode="&#xe927;" glyph-name="40" horiz-adv-x="591" d="M9.846 352.603c0-47.199 118.769-72.243 246.215-75.752 0-0.248-0.061-0.492-0.061-0.74v-184.615c0-33.969 13.785-123.077 30.769-123.077s30.769 89.108 30.769 123.077v184.615c0 0.248-0.061 0.492-0.061 0.74 127.447 3.509 246.215 28.554 246.215 75.752 0 50.093-45.355 86.646-123.077 106.338v318.709c77.722 26.338 123.077 68.738 123.077 98.892 0 101.969-553.846 101.969-553.846 0 0-33.169 45.354-74.646 123.077-100v-317.601c-77.723-19.751-123.077-56.245-123.077-106.338z" />
<glyph unicode="&#xe928;" glyph-name="41" horiz-adv-x="670" d="M519.385 743.423c0 98.831-85.784 184.615-184.615 184.615s-184.615-85.785-184.615-184.615 85.785-184.615 184.615-184.615c98.832 0 184.615 85.784 184.615 184.615zM334.769 497.27c-161.723 0-307.692-174.462-307.692-391.263s615.385-216.8 615.385 0c0 216.8-145.967 391.263-307.692 391.263z" />
<glyph unicode="&#xe929;" glyph-name="42" horiz-adv-x="973" d="M86.4 528h240c44.16 0 80 35.84 80 80v240c0 44.16-35.84 80-80 80h-240c-44.16 0-80-35.84-80-80v-240c0-44.16 35.84-80 80-80zM646.4 528h240c44.16 0 80 35.84 80 80v240c0 44.16-35.84 80-80 80h-240c-44.16 0-80-35.84-80-80v-240c0-44.16 35.84-80 80-80zM6.4 48c0-44.16 35.84-80 80-80h240c44.16 0 80 35.84 80 80v240c0 44.16-35.84 80-80 80h-240c-44.16 0-80-35.84-80-80v-240zM566.4 48c0-44.16 35.84-80 80-80h240c44.16 0 80 35.84 80 80v240c0 44.16-35.84 80-80 80h-240c-44.16 0-80-35.84-80-80v-240z" />
<glyph unicode="&#xe92a;" glyph-name="43" horiz-adv-x="996" d="M979.191 854.822l-316.84 90.096c-0.111 0.032-0.225 0.041-0.338 0.072-0.754 0.203-1.522 0.363-2.307 0.487-0.233 0.036-0.469 0.077-0.703 0.108-0.913 0.115-1.84 0.191-2.785 0.194-0.020 0-0.037 0-0.057 0-0.947-0.002-1.872-0.079-2.785-0.194-0.236-0.029-0.469-0.070-0.703-0.108-0.785-0.124-1.553-0.284-2.307-0.487-0.111-0.029-0.228-0.041-0.338-0.072l-310.679-88.345-310.667 88.345c-6.789 1.93-14.1 0.565-19.735-3.692s-8.949-10.911-8.949-17.974v-860.412c0-10.066 6.681-18.91 16.364-21.666l316.829-90.095c0.108-0.031 0.225-0.040 0.336-0.071 0.757-0.202 1.53-0.364 2.315-0.486 0.228-0.037 0.455-0.077 0.686-0.105 0.927-0.117 1.866-0.196 2.822-0.196 0.959 0 1.897 0.080 2.822 0.196 0.23 0.028 0.455 0.068 0.686 0.105 0.788 0.122 1.562 0.284 2.318 0.486 0.111 0.031 0.225 0.040 0.336 0.071l310.679 88.343 310.682-88.343c2.025-0.577 4.099-0.859 6.158-0.859 4.847 0 9.623 1.564 13.577 4.554 5.635 4.255 8.949 10.908 8.949 17.971v860.411c0 10.066-6.682 18.911-16.364 21.666zM361.876 816.144l271.79 77.286v-813.578l-271.79-77.286v813.578zM45.048 893.43l271.781-77.286v-813.578l-271.781 77.286v813.578zM950.508 2.566l-271.792 77.286v813.578l271.792-77.286v-813.578zM255.437 132.648l-136.634 38.855c-11.971 3.405-24.425-3.541-27.826-15.505-3.403-11.967 3.538-24.422 15.503-27.824l136.635-38.855c2.061-0.586 4.133-0.865 6.171-0.865 9.812 0 18.837 6.463 21.654 16.37 3.406 11.964-3.538 24.422-15.503 27.824zM255.437 245.268l-136.634 38.852c-11.971 3.405-24.425-3.541-27.826-15.502-3.403-11.967 3.538-24.422 15.503-27.827l136.635-38.852c2.061-0.586 4.133-0.865 6.171-0.865 9.812 0 18.837 6.46 21.654 16.367 3.406 11.964-3.538 24.422-15.503 27.827zM255.437 357.885l-136.634 38.855c-11.971 3.402-24.425-3.538-27.826-15.502-3.403-11.969 3.538-24.425 15.503-27.827l136.635-38.855c2.061-0.583 4.133-0.865 6.171-0.865 9.812 0 18.837 6.463 21.654 16.37 3.406 11.964-3.538 24.422-15.503 27.824zM255.43 767.823l-136.634 38.854c-6.796 1.93-14.1 0.565-19.736-3.692s-8.949-10.911-8.949-17.974v-297.316c0-10.064 6.68-18.91 16.364-21.663l136.634-38.855c2.027-0.577 4.099-0.859 6.16-0.859 4.845 0 9.622 1.564 13.575 4.554 5.635 4.255 8.949 10.908 8.949 17.971v297.315c0 10.066-6.68 18.911-16.364 21.666zM226.745 478.663l-91.587 26.044v250.482l91.587-26.044v-250.481zM429.409 723.627c2.039 0 4.113 0.279 6.172 0.865l136.65 38.856c11.964 3.403 18.904 15.861 15.502 27.826-3.405 11.965-15.866 18.906-27.827 15.503l-136.65-38.856c-11.964-3.403-18.904-15.861-15.502-27.826 2.819-9.906 11.841-16.368 21.655-16.368zM559.906 171.503l-136.65-38.855c-11.964-3.405-18.904-15.861-15.502-27.827 2.816-9.904 11.841-16.367 21.655-16.367 2.039 0 4.113 0.279 6.172 0.865l136.65 38.855c11.964 3.405 18.904 15.861 15.502 27.827-3.405 11.964-15.866 18.907-27.827 15.502zM559.906 284.12l-136.65-38.855c-11.964-3.402-18.904-15.861-15.502-27.827 2.816-9.904 11.841-16.367 21.655-16.367 2.039 0 4.113 0.279 6.172 0.865l136.65 38.855c11.964 3.405 18.904 15.863 15.502 27.827-3.405 11.964-15.866 18.907-27.827 15.502zM559.906 396.74l-136.65-38.855c-11.964-3.405-18.904-15.863-15.502-27.827 2.816-9.907 11.841-16.367 21.655-16.367 2.039 0 4.113 0.279 6.172 0.865l136.65 38.855c11.964 3.402 18.904 15.861 15.502 27.827-3.405 11.961-15.866 18.904-27.827 15.502zM559.906 509.358l-136.65-38.855c-11.964-3.405-18.904-15.861-15.502-27.827 2.816-9.904 11.841-16.367 21.655-16.367 2.039 0 4.113 0.279 6.172 0.865l136.65 38.855c11.964 3.405 18.904 15.861 15.502 27.827-3.405 11.964-15.866 18.904-27.827 15.502zM740.147 763.349l136.65-38.858c2.059-0.586 4.133-0.865 6.17-0.865 9.813 0 18.839 6.462 21.655 16.368 3.405 11.967-3.538 24.423-15.502 27.826l-136.65 38.858c-11.969 3.399-24.422-3.541-27.827-15.503-3.402-11.965 3.538-24.423 15.505-27.826zM740.147 650.724l136.65-38.858c2.059-0.586 4.133-0.865 6.17-0.865 9.813 0 18.839 6.463 21.655 16.367 3.405 11.969-3.538 24.425-15.502 27.827l-136.65 38.858c-11.969 3.399-24.422-3.541-27.827-15.503-3.402-11.966 3.538-24.422 15.505-27.827zM740.147 538.106l136.65-38.858c2.059-0.586 4.133-0.865 6.17-0.865 9.813 0 18.839 6.463 21.655 16.367 3.405 11.969-3.538 24.425-15.502 27.827l-136.65 38.858c-11.969 3.396-24.422-3.541-27.827-15.502-3.402-11.967 3.538-24.422 15.505-27.827zM740.142 128.176l136.65-38.858c2.028-0.577 4.099-0.859 6.161-0.859 4.844 0 9.623 1.564 13.574 4.554 5.635 4.255 8.949 10.908 8.949 17.971v297.316c0 10.064-6.679 18.91-16.364 21.666l-136.65 38.858c-6.795 1.926-14.1 0.563-19.735-3.692-5.635-4.258-8.949-10.911-8.949-17.971v-297.316c0-10.069 6.682-18.916 16.364-21.669zM768.825 417.337l91.602-26.049v-250.482l-91.602 26.047v250.485z" />
<glyph unicode="&#xe92b;" glyph-name="44" horiz-adv-x="996" d="M297.944 468.87c4.352-4.355 10.058-6.531 15.764-6.531s11.412 2.176 15.764 6.531c8.707 8.707 8.707 22.824 0 31.531l-41.492 41.495 59.44 59.44c8.707 8.707 8.707 22.824 0 31.531-8.704 8.704-22.821 8.704-31.528 0l-59.44-59.443-52.212 52.213 59.442 59.441c8.706 8.706 8.706 22.823 0 31.532-8.706 8.706-22.823 8.706-31.531 0l-59.442-59.442-118.83 118.828 116.55 115.765 275.201-275.2c8.704-8.707 22.821-8.707 31.531 0 8.707 8.707 8.707 22.824 0 31.528l-290.912 290.912c-8.686 8.684-22.763 8.708-31.478 0.054l-148.188-147.185c-4.205-4.178-6.575-9.854-6.584-15.78s2.339-11.611 6.53-15.802l291.414-291.416zM989.019 136.223l-291.163 291.163c-8.707 8.707-22.824 8.707-31.531 0-8.707-8.704-8.707-22.821 0-31.531l275.399-275.396-116.159-116.159-118.881 118.886 59.44 59.44c8.707 8.707 8.707 22.824 0 31.531-8.704 8.704-22.821 8.704-31.528 0l-59.44-59.443-52.213 52.213 59.443 59.44c8.707 8.707 8.707 22.824 0 31.531-8.707 8.71-22.824 8.707-31.531 0l-59.443-59.44-41.242 41.242c-8.707 8.704-22.824 8.704-31.531 0s-8.707-22.821 0-31.531l291.163-291.163c4.352-4.355 10.058-6.531 15.764-6.531s11.412 2.176 15.764 6.531l147.686 147.686c8.704 8.707 8.704 22.824 0 31.531zM141.171 807.576c-8.423-8.421-13.060-19.619-13.060-31.531 0-11.91 4.639-23.109 13.060-31.529 8.421-8.423 19.619-13.060 31.529-13.060s23.108 4.64 31.531 13.060c17.383 17.385 17.383 45.673 0 63.058-8.423 8.421-19.619 13.058-31.531 13.058s-23.109-4.633-31.529-13.056zM857.094 91.654c8.42 8.422 13.059 19.618 13.059 31.528s-4.639 23.108-13.059 31.531c-8.422 8.422-19.621 13.059-31.534 13.059-11.91 0-23.105-4.636-31.528-13.059s-13.059-19.618-13.059-31.531c0-11.91 4.636-23.105 13.056-31.528 8.422-8.425 19.621-13.062 31.531-13.062 11.913 0 23.111 4.636 31.534 13.062zM897.195 689.778c0.006 0.004 0.009 0.007 0.011 0.011 0.006 0.005 0.009 0.007 0.011 0.011l63.863 63.863c43.463 43.463 43.463 114.184 0 157.648-21.029 21.026-49.021 32.606-78.822 32.606-29.804 0-57.796-11.58-78.825-32.608l-63.852-63.852c-0.006-0.007-0.014-0.013-0.023-0.020-0.006-0.007-0.011-0.015-0.020-0.022l-78.794-78.794c0 0-0.006-0.005-0.009-0.009s-0.003-0.007-0.009-0.009l-511.002-510.998c-0.042-0.043-0.076-0.094-0.118-0.137-0.682-0.697-1.315-1.434-1.902-2.21-0.127-0.168-0.241-0.341-0.363-0.512-0.511-0.72-0.983-1.465-1.407-2.239-0.047-0.088-0.112-0.162-0.158-0.25l-83.041-157.141c-0.042-0.077-0.085-0.156-0.125-0.236l-58.167-110.077c-4.57-8.647-2.97-19.265 3.946-26.183 4.287-4.284 9.992-6.531 15.771-6.531 3.547 0 7.121 0.845 10.409 2.586l110.089 58.175c0.071 0.037 0.14 0.074 0.212 0.111l157.154 83.049c0.040 0.020 0.080 0.051 0.122 0.074 0.856 0.461 1.678 0.984 2.466 1.55 0.139 0.1 0.279 0.199 0.412 0.302 0.774 0.583 1.51 1.215 2.207 1.897 0.043 0.043 0.097 0.077 0.142 0.122l589.818 589.824zM138.527 60.041l-28.715 28.718 46.941 88.826 9.638-43.964c0.024-0.114 0.071-0.219 0.098-0.333 0.194-0.828 0.437-1.644 0.727-2.452 0.056-0.154 0.103-0.307 0.161-0.458 0.343-0.896 0.744-1.769 1.208-2.623 0.071-0.131 0.154-0.256 0.227-0.384 0.397-0.697 0.838-1.377 1.318-2.037 0.138-0.188 0.272-0.378 0.415-0.563 0.573-0.74 1.182-1.462 1.859-2.142 0.68-0.68 1.402-1.289 2.145-1.863 0.183-0.139 0.37-0.273 0.558-0.41 0.664-0.481 1.347-0.924 2.049-1.326 0.125-0.071 0.243-0.151 0.37-0.219 0.856-0.466 1.735-0.868 2.631-1.212 0.147-0.057 0.296-0.102 0.443-0.156 0.812-0.293 1.636-0.538 2.473-0.734 0.109-0.028 0.212-0.071 0.323-0.097l43.961-9.634-88.829-46.939zM232.749 151.45l81.955 81.957c8.707 8.707 8.707 22.824 0 31.531-8.707 8.704-22.824 8.704-31.529 0l-81.955-81.957-11.339 51.721 486.619 486.617 31.531-31.529-371.086-371.083c-8.707-8.707-8.707-22.824 0-31.531 4.355-4.355 10.061-6.531 15.764-6.531 5.706 0 11.415 2.179 15.767 6.531l371.081 371.083 31.531-31.531-486.619-486.616-51.719 11.338zM755.322 800.139l94.589-94.587-47.295-47.293-94.586 94.587 47.292 47.293zM834.961 879.777c12.607 12.608 29.403 19.55 47.295 19.55s34.688-6.942 47.292-19.548c26.078-26.078 26.078-68.509 0-94.587l-48.108-48.108-94.586 94.587 48.108 48.105zM88.010 47.499l9.261-9.262-19.639-10.379 10.378 19.641z" />
<glyph unicode="&#xe92c;" glyph-name="45" d="M26.231 38.828c-23.523-23.522-23.523-61.663 0-85.185s61.662-23.522 85.185 0l-85.185 85.185zM980.914 848.091c0 33.267-26.967 60.235-60.235 60.235h-542.117c-33.267 0-60.235-26.968-60.235-60.235s26.969-60.235 60.235-60.235h481.882v-481.885c0-33.262 26.967-60.235 60.235-60.235s60.235 26.973 60.235 60.235v542.12zM111.416-46.357l851.855 851.855-85.185 85.185-851.855-851.856 85.185-85.185z" />
</font>
</defs>
</svg>
